<?xml version="1.0" encoding="UTF-8" standalone="no"?><svg viewBox="0 0 1700 1260" xmlns="http://www.w3.org/2000/svg" role="img"><title>IB Chemistry HL Kinetics Practical Labs Mind Map</title><rect x="0" y="0" width="1700" height="1260" fill="#ffffff"/><text x="850.0" y="42" text-anchor="middle" font-size="26" font-weight="800" fill="#0f172a" font-family="Arial, sans-serif">IB Chemistry HL — Kinetics Practical Labs</text><text x="850.0" y="66" text-anchor="middle" font-size="14" fill="#475569" font-family="Arial, sans-serif">Laboratory experiments &amp; IA ideas for Reactivity 2.2 "How fast? The rate of chemical change"</text><rect x="700.0" y="582.0" width="300.0" height="96.0" rx="16" ry="16" fill="#0f172a"/><text x="850" y="622" text-anchor="middle" font-size="19" font-weight="800" fill="#ffffff" font-family="Arial, sans-serif">KINETICS LABS</text><text x="850" y="646" text-anchor="middle" font-size="12.5" fill="#cbd5e1" font-family="Arial, sans-serif">Practical experiments — HL Chemistry</text><path d="M 580.0 245.0 C 640.0 245.0, 640.0 630.0, 700.0 630.0" fill="none" stroke="#2563eb" stroke-width="3" stroke-linecap="round" opacity="0.55"/><rect x="260.0" y="221.0" width="320.0" height="48.0" rx="10" ry="10" fill="#2563eb"/><text x="420" y="241" text-anchor="middle" font-size="15" font-weight="700" fill="#ffffff" font-family="Arial, sans-serif">MEASURING RATE - METHODS</text><text x="420" y="260" text-anchor="middle" font-size="11.5" font-weight="500" fill="#ffffff" opacity="0.85" font-family="Arial, sans-serif">Techniques</text><rect x="220.0" y="283.0" width="400.0" height="150.0" rx="10" ry="10" fill="#eff6ff" stroke="#93c5fd" stroke-width="1.5"/><circle cx="240.0" cy="308.0" r="2.8" fill="#2563eb"/><text x="250.0" y="312.0" font-size="12.3" fill="#1e3a8a" font-family="Arial, sans-serif">Gas collection: Mg + HCl -&gt; H2 volume vs time</text><circle cx="240.0" cy="332.0" r="2.8" fill="#2563eb"/><text x="250.0" y="336.0" font-size="12.3" fill="#1e3a8a" font-family="Arial, sans-serif">Mass loss: CaCO3 + HCl -&gt; CO2 escapes, mass falls</text><circle cx="240.0" cy="356.0" r="2.8" fill="#2563eb"/><text x="250.0" y="360.0" font-size="12.3" fill="#1e3a8a" font-family="Arial, sans-serif">Colorimetry: monitor fading/forming colour vs time</text><circle cx="240.0" cy="380.0" r="2.8" fill="#2563eb"/><text x="250.0" y="384.0" font-size="12.3" fill="#1e3a8a" font-family="Arial, sans-serif">Titration/quenching: sample the mixture at intervals</text><circle cx="240.0" cy="404.0" r="2.8" fill="#2563eb"/><text x="250.0" y="408.0" font-size="12.3" fill="#1e3a8a" font-family="Arial, sans-serif">Iodine clock reaction: sudden colour change marks endpoint</text><path d="M 580.0 500.0 C 640.0 500.0, 640.0 630.0, 700.0 630.0" fill="none" stroke="#2563eb" stroke-width="3" stroke-linecap="round" opacity="0.55"/><rect x="260.0" y="476.0" width="320.0" height="48.0" rx="10" ry="10" fill="#2563eb"/><text x="420" y="496" text-anchor="middle" font-size="15" font-weight="700" fill="#ffffff" font-family="Arial, sans-serif">CONCENTRATION &amp; SURFACE AREA</text><text x="420" y="515" text-anchor="middle" font-size="11.5" font-weight="500" fill="#ffffff" opacity="0.85" font-family="Arial, sans-serif">Qualitative</text><rect x="220.0" y="538.0" width="400.0" height="126.0" rx="10" ry="10" fill="#eff6ff" stroke="#93c5fd" stroke-width="1.5"/><circle cx="240.0" cy="563.0" r="2.8" fill="#2563eb"/><text x="250.0" y="567.0" font-size="12.3" fill="#1e3a8a" font-family="Arial, sans-serif">Disappearing cross: Na2S2O3 + HCl, vary [reactant]</text><circle cx="240.0" cy="587.0" r="2.8" fill="#2563eb"/><text x="250.0" y="591.0" font-size="12.3" fill="#1e3a8a" font-family="Arial, sans-serif">Marble chips + HCl: lump vs powder, compare CO2 rate</text><circle cx="240.0" cy="611.0" r="2.8" fill="#2563eb"/><text x="250.0" y="615.0" font-size="12.3" fill="#1e3a8a" font-family="Arial, sans-serif">Keep all other variables constant (fair testing)</text><circle cx="240.0" cy="635.0" r="2.8" fill="#2563eb"/><text x="250.0" y="639.0" font-size="12.3" fill="#1e3a8a" font-family="Arial, sans-serif">Plot rate vs concentration to see the relationship</text><path d="M 580.0 755.0 C 640.0 755.0, 640.0 630.0, 700.0 630.0" fill="none" stroke="#2563eb" stroke-width="3" stroke-linecap="round" opacity="0.55"/><rect x="260.0" y="731.0" width="320.0" height="48.0" rx="10" ry="10" fill="#2563eb"/><text x="420" y="751" text-anchor="middle" font-size="15" font-weight="700" fill="#ffffff" font-family="Arial, sans-serif">TEMPERATURE EFFECTS ON RATE</text><text x="420" y="770" text-anchor="middle" font-size="11.5" font-weight="500" fill="#ffffff" opacity="0.85" font-family="Arial, sans-serif">Qualitative</text><rect x="220.0" y="793.0" width="400.0" height="126.0" rx="10" ry="10" fill="#eff6ff" stroke="#93c5fd" stroke-width="1.5"/><circle cx="240.0" cy="818.0" r="2.8" fill="#2563eb"/><text x="250.0" y="822.0" font-size="12.3" fill="#1e3a8a" font-family="Arial, sans-serif">Repeat thiosulfate/HCl or Mg/acid reaction at various T</text><circle cx="240.0" cy="842.0" r="2.8" fill="#2563eb"/><text x="250.0" y="846.0" font-size="12.3" fill="#1e3a8a" font-family="Arial, sans-serif">Water baths used to control &amp; vary temperature</text><circle cx="240.0" cy="866.0" r="2.8" fill="#2563eb"/><text x="250.0" y="870.0" font-size="12.3" fill="#1e3a8a" font-family="Arial, sans-serif">Rate roughly doubles per 10C rise (rule of thumb)</text><circle cx="240.0" cy="890.0" r="2.8" fill="#2563eb"/><text x="250.0" y="894.0" font-size="12.3" fill="#1e3a8a" font-family="Arial, sans-serif">Link results to the Maxwell-Boltzmann distribution shift</text><path d="M 580.0 1010.0 C 640.0 1010.0, 640.0 630.0, 700.0 630.0" fill="none" stroke="#2563eb" stroke-width="3" stroke-linecap="round" opacity="0.55"/><rect x="260.0" y="986.0" width="320.0" height="48.0" rx="10" ry="10" fill="#2563eb"/><text x="420" y="1006" text-anchor="middle" font-size="15" font-weight="700" fill="#ffffff" font-family="Arial, sans-serif">CATALYSIS DEMONSTRATIONS</text><text x="420" y="1025" text-anchor="middle" font-size="11.5" font-weight="500" fill="#ffffff" opacity="0.85" font-family="Arial, sans-serif">Qualitative</text><rect x="220.0" y="1048.0" width="400.0" height="126.0" rx="10" ry="10" fill="#eff6ff" stroke="#93c5fd" stroke-width="1.5"/><circle cx="240.0" cy="1073.0" r="2.8" fill="#2563eb"/><text x="250.0" y="1077.0" font-size="12.3" fill="#1e3a8a" font-family="Arial, sans-serif">MnO2-catalysed decomposition of H2O2 -&gt; O2 measured</text><circle cx="240.0" cy="1097.0" r="2.8" fill="#2563eb"/><text x="250.0" y="1101.0" font-size="12.3" fill="#1e3a8a" font-family="Arial, sans-serif">Catalase (enzyme) + H2O2 - biological catalyst demo</text><circle cx="240.0" cy="1121.0" r="2.8" fill="#2563eb"/><text x="250.0" y="1125.0" font-size="12.3" fill="#1e3a8a" font-family="Arial, sans-serif">Iodide-catalysed persulfate-iodide clock reaction</text><circle cx="240.0" cy="1145.0" r="2.8" fill="#2563eb"/><text x="250.0" y="1149.0" font-size="12.3" fill="#1e3a8a" font-family="Arial, sans-serif">Compare catalysed vs uncatalysed reaction rate/Ea</text><path d="M 1000.0 630.0 C 1060.0 630.0, 1060.0 245.0, 1120.0 245.0" fill="none" stroke="#7c3aed" stroke-width="3" stroke-linecap="round" opacity="0.55"/><rect x="1120.0" y="221.0" width="320.0" height="48.0" rx="10" ry="10" fill="#7c3aed"/><text x="1280" y="241" text-anchor="middle" font-size="15" font-weight="700" fill="#ffffff" font-family="Arial, sans-serif">DETERMINING ORDER - INITIAL RATES</text><text x="1280" y="260" text-anchor="middle" font-size="11.5" font-weight="500" fill="#ffffff" opacity="0.85" font-family="Arial, sans-serif">Reactivity 2.2.9-2.2.10 . HL</text><rect x="1080.0" y="283.0" width="400.0" height="126.0" rx="10" ry="10" fill="#f5f3ff" stroke="#c4b5fd" stroke-width="1.5"/><circle cx="1100.0" cy="308.0" r="2.8" fill="#7c3aed"/><text x="1110.0" y="312.0" font-size="12.3" fill="#4c1d95" font-family="Arial, sans-serif">Vary one [reactant] at a time, others held constant</text><circle cx="1100.0" cy="332.0" r="2.8" fill="#7c3aed"/><text x="1110.0" y="336.0" font-size="12.3" fill="#4c1d95" font-family="Arial, sans-serif">Measure initial rate (steepest tangent) for each run</text><circle cx="1100.0" cy="356.0" r="2.8" fill="#7c3aed"/><text x="1110.0" y="360.0" font-size="12.3" fill="#4c1d95" font-family="Arial, sans-serif">Compare rates to deduce order w.r.t. each reactant</text><circle cx="1100.0" cy="380.0" r="2.8" fill="#7c3aed"/><text x="1110.0" y="384.0" font-size="12.3" fill="#4c1d95" font-family="Arial, sans-serif">Classic: iodine clock varying [I-], [S2O8 2-], [H+]</text><path d="M 1000.0 630.0 C 1060.0 630.0, 1060.0 500.0, 1120.0 500.0" fill="none" stroke="#7c3aed" stroke-width="3" stroke-linecap="round" opacity="0.55"/><rect x="1120.0" y="476.0" width="320.0" height="48.0" rx="10" ry="10" fill="#7c3aed"/><text x="1280" y="496" text-anchor="middle" font-size="15" font-weight="700" fill="#ffffff" font-family="Arial, sans-serif">DETERMINING ORDER (GRAPHS)</text><text x="1280" y="515" text-anchor="middle" font-size="11.5" font-weight="500" fill="#ffffff" opacity="0.85" font-family="Arial, sans-serif">Half-life method . HL</text><rect x="1080.0" y="538.0" width="400.0" height="126.0" rx="10" ry="10" fill="#f5f3ff" stroke="#c4b5fd" stroke-width="1.5"/><circle cx="1100.0" cy="563.0" r="2.8" fill="#7c3aed"/><text x="1110.0" y="567.0" font-size="12.3" fill="#4c1d95" font-family="Arial, sans-serif">Plot concentration vs time; examine the decay curve shape</text><circle cx="1100.0" cy="587.0" r="2.8" fill="#7c3aed"/><text x="1110.0" y="591.0" font-size="12.3" fill="#4c1d95" font-family="Arial, sans-serif">Constant half-life confirms a first-order reaction</text><circle cx="1100.0" cy="611.0" r="2.8" fill="#7c3aed"/><text x="1110.0" y="615.0" font-size="12.3" fill="#4c1d95" font-family="Arial, sans-serif">Rate vs [conc.] straight line -&gt; first order</text><circle cx="1100.0" cy="635.0" r="2.8" fill="#7c3aed"/><text x="1110.0" y="639.0" font-size="12.3" fill="#4c1d95" font-family="Arial, sans-serif">Rate vs [conc.]^2 -&gt; second-order behaviour</text><path d="M 1000.0 630.0 C 1060.0 630.0, 1060.0 755.0, 1120.0 755.0" fill="none" stroke="#7c3aed" stroke-width="3" stroke-linecap="round" opacity="0.55"/><rect x="1120.0" y="731.0" width="320.0" height="48.0" rx="10" ry="10" fill="#7c3aed"/><text x="1280" y="751" text-anchor="middle" font-size="15" font-weight="700" fill="#ffffff" font-family="Arial, sans-serif">ARRHENIUS INVESTIGATIONS</text><text x="1280" y="770" text-anchor="middle" font-size="11.5" font-weight="500" fill="#ffffff" opacity="0.85" font-family="Arial, sans-serif">Ea determination . HL</text><rect x="1080.0" y="793.0" width="400.0" height="126.0" rx="10" ry="10" fill="#f5f3ff" stroke="#c4b5fd" stroke-width="1.5"/><circle cx="1100.0" cy="818.0" r="2.8" fill="#7c3aed"/><text x="1110.0" y="822.0" font-size="12.3" fill="#4c1d95" font-family="Arial, sans-serif">Time a reaction (e.g. thiosulfate clock) at several T</text><circle cx="1100.0" cy="842.0" r="2.8" fill="#7c3aed"/><text x="1110.0" y="846.0" font-size="12.3" fill="#4c1d95" font-family="Arial, sans-serif">Use 1/time as a proxy for rate</text><circle cx="1100.0" cy="866.0" r="2.8" fill="#7c3aed"/><text x="1110.0" y="870.0" font-size="12.3" fill="#4c1d95" font-family="Arial, sans-serif">Plot ln(rate) vs 1/T - Arrhenius linear form</text><circle cx="1100.0" cy="890.0" r="2.8" fill="#7c3aed"/><text x="1110.0" y="894.0" font-size="12.3" fill="#4c1d95" font-family="Arial, sans-serif">Determine Ea from gradient (-Ea/R) &amp; A from intercept</text><path d="M 1000.0 630.0 C 1060.0 630.0, 1060.0 1010.0, 1120.0 1010.0" fill="none" stroke="#7c3aed" stroke-width="3" stroke-linecap="round" opacity="0.55"/><rect x="1120.0" y="986.0" width="320.0" height="48.0" rx="10" ry="10" fill="#7c3aed"/><text x="1280" y="1006" text-anchor="middle" font-size="15" font-weight="700" fill="#ffffff" font-family="Arial, sans-serif">MECHANISM INVESTIGATIONS &amp; IA IDEAS</text><text x="1280" y="1025" text-anchor="middle" font-size="11.5" font-weight="500" fill="#ffffff" opacity="0.85" font-family="Arial, sans-serif">HL</text><rect x="1080.0" y="1048.0" width="400.0" height="126.0" rx="10" ry="10" fill="#f5f3ff" stroke="#c4b5fd" stroke-width="1.5"/><circle cx="1100.0" cy="1073.0" r="2.8" fill="#7c3aed"/><text x="1110.0" y="1077.0" font-size="12.3" fill="#4c1d95" font-family="Arial, sans-serif">Acid-catalysed iodination of propanone: zero order in I2</text><circle cx="1100.0" cy="1097.0" r="2.8" fill="#7c3aed"/><text x="1110.0" y="1101.0" font-size="12.3" fill="#4c1d95" font-family="Arial, sans-serif">Confirms proposed mechanism &amp; rate-determining step</text><circle cx="1100.0" cy="1121.0" r="2.8" fill="#7c3aed"/><text x="1110.0" y="1125.0" font-size="12.3" fill="#4c1d95" font-family="Arial, sans-serif">Compare catalysed vs uncatalysed Ea (Arrhenius plots)</text><circle cx="1100.0" cy="1145.0" r="2.8" fill="#7c3aed"/><text x="1110.0" y="1149.0" font-size="12.3" fill="#4c1d95" font-family="Arial, sans-serif">Investigate order w.r.t. catalyst/H+ concentration</text><rect x="30.0" y="1190.0" width="16.0" height="16.0" rx="4" ry="4" fill="#2563eb"/><text x="54" y="1203" font-size="13" fill="#1e293b" font-family="Arial, sans-serif">Qualitative demos (SL &amp; HL)</text><rect x="320.0" y="1190.0" width="16.0" height="16.0" rx="4" ry="4" fill="#7c3aed"/><text x="344" y="1203" font-size="13" fill="#1e293b" font-family="Arial, sans-serif">Quantitative kinetics &amp; IA ideas (HL)</text><text x="1670" y="1203" text-anchor="end" font-size="11" fill="#94a3b8" font-family="Arial, sans-serif">Standard school-lab practicals compiled from IB Chemistry teaching resources</text></svg>