<?xml version="1.0" encoding="UTF-8" standalone="no"?><svg viewBox="0 0 1760 1560" xmlns="http://www.w3.org/2000/svg" role="img"><title>IB Chemistry HL Organic Chemistry Practical Labs Mind Map</title><rect x="0" y="0" width="1760" height="1560" fill="#ffffff"/><text x="880.0" y="42" text-anchor="middle" font-size="26" font-weight="800" fill="#0f172a" font-family="Arial, sans-serif">IB Chemistry HL — Organic Chemistry Labs</text><text x="880.0" y="66" text-anchor="middle" font-size="14" fill="#475569" font-family="Arial, sans-serif">Practical, synthesis &amp; simulation work for Structure 3.2 and Reactivity 3.3-3.4</text><rect x="730.0" y="730.0" width="300.0" height="100.0" rx="16" ry="16" fill="#0f172a"/><text x="880" y="770" text-anchor="middle" font-size="17" font-weight="800" fill="#ffffff" font-family="Arial, sans-serif">ORGANIC CHEM</text><text x="880" y="792" text-anchor="middle" font-size="17" font-weight="800" fill="#ffffff" font-family="Arial, sans-serif">LABS</text><text x="880" y="814" text-anchor="middle" font-size="11.5" fill="#cbd5e1" font-family="Arial, sans-serif">Practical work — HL Chemistry</text><path d="M 640.0 190.0 C 685.0 190.0, 685.0 780.0, 730.0 780.0" fill="none" stroke="#2563eb" stroke-width="3" stroke-linecap="round" opacity="0.55"/><rect x="280.0" y="166.0" width="360.0" height="48.0" rx="10" ry="10" fill="#2563eb"/><text x="460" y="186" text-anchor="middle" font-size="14.5" font-weight="700" fill="#ffffff" font-family="Arial, sans-serif">FUNCTIONAL GROUP TESTS</text><text x="460" y="205" text-anchor="middle" font-size="11.5" font-weight="500" fill="#ffffff" opacity="0.85" font-family="Arial, sans-serif">Qualitative analysis</text><rect x="240.0" y="228.0" width="440.0" height="116.0" rx="10" ry="10" fill="#eff6ff" stroke="#93c5fd" stroke-width="1.5"/><circle cx="260.0" cy="251.0" r="2.6" fill="#2563eb"/><text x="270.0" y="255.0" font-size="11.8" fill="#1e3a8a" font-family="Arial, sans-serif">Tollens' and Fehling's tests: distinguish aldehydes from ketones</text><circle cx="260.0" cy="273.0" r="2.6" fill="#2563eb"/><text x="270.0" y="277.0" font-size="11.8" fill="#1e3a8a" font-family="Arial, sans-serif">Bromine water: test for C=C unsaturation (alkenes)</text><circle cx="260.0" cy="295.0" r="2.6" fill="#2563eb"/><text x="270.0" y="299.0" font-size="11.8" fill="#1e3a8a" font-family="Arial, sans-serif">Acidified K2Cr2O7: oxidize alcohols, monitor colour change</text><circle cx="260.0" cy="317.0" r="2.6" fill="#2563eb"/><text x="270.0" y="321.0" font-size="11.8" fill="#1e3a8a" font-family="Arial, sans-serif">Iodoform test: identify CH3CH(OH)- and CH3CO- groups</text><path d="M 640.0 398.0 C 685.0 398.0, 685.0 780.0, 730.0 780.0" fill="none" stroke="#2563eb" stroke-width="3" stroke-linecap="round" opacity="0.55"/><rect x="280.0" y="374.0" width="360.0" height="48.0" rx="10" ry="10" fill="#2563eb"/><text x="460" y="394" text-anchor="middle" font-size="14.5" font-weight="700" fill="#ffffff" font-family="Arial, sans-serif">DISTILLATION &amp; PURIFICATION</text><text x="460" y="413" text-anchor="middle" font-size="11.5" font-weight="500" fill="#ffffff" opacity="0.85" font-family="Arial, sans-serif">Practical techniques</text><rect x="240.0" y="436.0" width="440.0" height="116.0" rx="10" ry="10" fill="#eff6ff" stroke="#93c5fd" stroke-width="1.5"/><circle cx="260.0" cy="459.0" r="2.6" fill="#2563eb"/><text x="270.0" y="463.0" font-size="11.8" fill="#1e3a8a" font-family="Arial, sans-serif">Simple and fractional distillation of liquid mixtures</text><circle cx="260.0" cy="481.0" r="2.6" fill="#2563eb"/><text x="270.0" y="485.0" font-size="11.8" fill="#1e3a8a" font-family="Arial, sans-serif">Recrystallization to purify a solid organic product</text><circle cx="260.0" cy="503.0" r="2.6" fill="#2563eb"/><text x="270.0" y="507.0" font-size="11.8" fill="#1e3a8a" font-family="Arial, sans-serif">Melting-point determination as a purity check</text><circle cx="260.0" cy="525.0" r="2.6" fill="#2563eb"/><text x="270.0" y="529.0" font-size="11.8" fill="#1e3a8a" font-family="Arial, sans-serif">Reflux apparatus for controlled prolonged heating</text><path d="M 640.0 606.0 C 685.0 606.0, 685.0 780.0, 730.0 780.0" fill="none" stroke="#2563eb" stroke-width="3" stroke-linecap="round" opacity="0.55"/><rect x="280.0" y="582.0" width="360.0" height="48.0" rx="10" ry="10" fill="#2563eb"/><text x="460" y="602" text-anchor="middle" font-size="14.5" font-weight="700" fill="#ffffff" font-family="Arial, sans-serif">ESTERIFICATION &amp; DERIVATIVE PREP</text><text x="460" y="621" text-anchor="middle" font-size="11.5" font-weight="500" fill="#ffffff" opacity="0.85" font-family="Arial, sans-serif">Synthesis practical</text><rect x="240.0" y="644.0" width="440.0" height="116.0" rx="10" ry="10" fill="#eff6ff" stroke="#93c5fd" stroke-width="1.5"/><circle cx="260.0" cy="667.0" r="2.6" fill="#2563eb"/><text x="270.0" y="671.0" font-size="11.8" fill="#1e3a8a" font-family="Arial, sans-serif">Esterify ethanoic acid + ethanol with conc. H2SO4 catalyst</text><circle cx="260.0" cy="689.0" r="2.6" fill="#2563eb"/><text x="270.0" y="693.0" font-size="11.8" fill="#1e3a8a" font-family="Arial, sans-serif">Identify esters by characteristic fruity smell</text><circle cx="260.0" cy="711.0" r="2.6" fill="#2563eb"/><text x="270.0" y="715.0" font-size="11.8" fill="#1e3a8a" font-family="Arial, sans-serif">Prepare aspirin (acetylsalicylic acid) from salicylic acid</text><circle cx="260.0" cy="733.0" r="2.6" fill="#2563eb"/><text x="270.0" y="737.0" font-size="11.8" fill="#1e3a8a" font-family="Arial, sans-serif">Saponification: make soap from a fat/oil and NaOH</text><path d="M 640.0 814.0 C 685.0 814.0, 685.0 780.0, 730.0 780.0" fill="none" stroke="#2563eb" stroke-width="3" stroke-linecap="round" opacity="0.55"/><rect x="280.0" y="790.0" width="360.0" height="48.0" rx="10" ry="10" fill="#2563eb"/><text x="460" y="810" text-anchor="middle" font-size="14.5" font-weight="700" fill="#ffffff" font-family="Arial, sans-serif">OXIDATION OF ALCOHOLS</text><text x="460" y="829" text-anchor="middle" font-size="11.5" font-weight="500" fill="#ffffff" opacity="0.85" font-family="Arial, sans-serif">Redox practical</text><rect x="240.0" y="852.0" width="440.0" height="116.0" rx="10" ry="10" fill="#eff6ff" stroke="#93c5fd" stroke-width="1.5"/><circle cx="260.0" cy="875.0" r="2.6" fill="#2563eb"/><text x="270.0" y="879.0" font-size="11.8" fill="#1e3a8a" font-family="Arial, sans-serif">Oxidize primary alcohols to aldehydes (distil as formed)</text><circle cx="260.0" cy="897.0" r="2.6" fill="#2563eb"/><text x="270.0" y="901.0" font-size="11.8" fill="#1e3a8a" font-family="Arial, sans-serif">Oxidize primary alcohols further to carboxylic acids (reflux)</text><circle cx="260.0" cy="919.0" r="2.6" fill="#2563eb"/><text x="270.0" y="923.0" font-size="11.8" fill="#1e3a8a" font-family="Arial, sans-serif">Oxidize secondary alcohols to ketones; tertiary alcohols resist</text><circle cx="260.0" cy="941.0" r="2.6" fill="#2563eb"/><text x="270.0" y="945.0" font-size="11.8" fill="#1e3a8a" font-family="Arial, sans-serif">Monitor acidified dichromate colour change (orange to green)</text><path d="M 640.0 1022.0 C 685.0 1022.0, 685.0 780.0, 730.0 780.0" fill="none" stroke="#2563eb" stroke-width="3" stroke-linecap="round" opacity="0.55"/><rect x="280.0" y="998.0" width="360.0" height="48.0" rx="10" ry="10" fill="#2563eb"/><text x="460" y="1018" text-anchor="middle" font-size="14.5" font-weight="700" fill="#ffffff" font-family="Arial, sans-serif">CHROMATOGRAPHY &amp; EXTRACTION</text><text x="460" y="1037" text-anchor="middle" font-size="11.5" font-weight="500" fill="#ffffff" opacity="0.85" font-family="Arial, sans-serif">Separation practical</text><rect x="240.0" y="1060.0" width="440.0" height="116.0" rx="10" ry="10" fill="#eff6ff" stroke="#93c5fd" stroke-width="1.5"/><circle cx="260.0" cy="1083.0" r="2.6" fill="#2563eb"/><text x="270.0" y="1087.0" font-size="11.8" fill="#1e3a8a" font-family="Arial, sans-serif">Paper/TLC chromatography of coloured pigment mixtures</text><circle cx="260.0" cy="1105.0" r="2.6" fill="#2563eb"/><text x="270.0" y="1109.0" font-size="11.8" fill="#1e3a8a" font-family="Arial, sans-serif">Calculate and compare Rf values across solvents</text><circle cx="260.0" cy="1127.0" r="2.6" fill="#2563eb"/><text x="270.0" y="1131.0" font-size="11.8" fill="#1e3a8a" font-family="Arial, sans-serif">Steam distillation to extract essential oils (e.g. clove, orange)</text><circle cx="260.0" cy="1149.0" r="2.6" fill="#2563eb"/><text x="270.0" y="1153.0" font-size="11.8" fill="#1e3a8a" font-family="Arial, sans-serif">Solvent extraction and evaporation to isolate a product</text><path d="M 640.0 1230.0 C 685.0 1230.0, 685.0 780.0, 730.0 780.0" fill="none" stroke="#2563eb" stroke-width="3" stroke-linecap="round" opacity="0.55"/><rect x="280.0" y="1206.0" width="360.0" height="48.0" rx="10" ry="10" fill="#2563eb"/><text x="460" y="1226" text-anchor="middle" font-size="14.5" font-weight="700" fill="#ffffff" font-family="Arial, sans-serif">RATES OF HYDROLYSIS INVESTIGATION</text><text x="460" y="1245" text-anchor="middle" font-size="11.5" font-weight="500" fill="#ffffff" opacity="0.85" font-family="Arial, sans-serif">SN kinetics practical</text><rect x="240.0" y="1268.0" width="440.0" height="138.0" rx="10" ry="10" fill="#eff6ff" stroke="#93c5fd" stroke-width="1.5"/><circle cx="260.0" cy="1291.0" r="2.6" fill="#2563eb"/><text x="270.0" y="1295.0" font-size="11.8" fill="#1e3a8a" font-family="Arial, sans-serif">Hydrolyse halogenoalkanes (RCl, RBr, RI) with AgNO3(aq)/ethanol</text><circle cx="260.0" cy="1313.0" r="2.6" fill="#2563eb"/><text x="270.0" y="1317.0" font-size="11.8" fill="#1e3a8a" font-family="Arial, sans-serif">Time the appearance of the silver halide precipitate</text><circle cx="260.0" cy="1335.0" r="2.6" fill="#2563eb"/><text x="270.0" y="1339.0" font-size="11.8" fill="#1e3a8a" font-family="Arial, sans-serif">Compare rates to the trend in C-X bond enthalpy</text><circle cx="260.0" cy="1357.0" r="2.6" fill="#2563eb"/><text x="270.0" y="1361.0" font-size="11.8" fill="#1e3a8a" font-family="Arial, sans-serif">Link results to leaving-group ability (I- &gt; Br- &gt; Cl-)</text><circle cx="260.0" cy="1379.0" r="2.6" fill="#2563eb"/><text x="270.0" y="1383.0" font-size="11.8" fill="#1e3a8a" font-family="Arial, sans-serif">Good IA idea: extend to primary vs tertiary halogenoalkanes</text><path d="M 1030.0 780.0 C 1075.0 780.0, 1075.0 230.0, 1120.0 230.0" fill="none" stroke="#7c3aed" stroke-width="3" stroke-linecap="round" opacity="0.55"/><rect x="1120.0" y="206.0" width="360.0" height="48.0" rx="10" ry="10" fill="#7c3aed"/><text x="1300" y="226" text-anchor="middle" font-size="14.5" font-weight="700" fill="#ffffff" font-family="Arial, sans-serif">MULTI-STEP ORGANIC SYNTHESIS (IA)</text><text x="1300" y="245" text-anchor="middle" font-size="11.5" font-weight="500" fill="#ffffff" opacity="0.85" font-family="Arial, sans-serif">Synthesis planning . HL</text><rect x="1080.0" y="268.0" width="440.0" height="116.0" rx="10" ry="10" fill="#f5f3ff" stroke="#c4b5fd" stroke-width="1.5"/><circle cx="1100.0" cy="291.0" r="2.6" fill="#7c3aed"/><text x="1110.0" y="295.0" font-size="11.8" fill="#4c1d95" font-family="Arial, sans-serif">Design a synthetic pathway from a starting material to a target</text><circle cx="1100.0" cy="313.0" r="2.6" fill="#7c3aed"/><text x="1110.0" y="317.0" font-size="11.8" fill="#4c1d95" font-family="Arial, sans-serif">Practise functional-group interconversions across several steps</text><circle cx="1100.0" cy="335.0" r="2.6" fill="#7c3aed"/><text x="1110.0" y="339.0" font-size="11.8" fill="#4c1d95" font-family="Arial, sans-serif">Calculate percentage yield and assess purity at each stage</text><circle cx="1100.0" cy="357.0" r="2.6" fill="#7c3aed"/><text x="1110.0" y="361.0" font-size="11.8" fill="#4c1d95" font-family="Arial, sans-serif">Evaluate safety, cost and green-chemistry alternatives</text><path d="M 1030.0 780.0 C 1075.0 780.0, 1075.0 438.0, 1120.0 438.0" fill="none" stroke="#7c3aed" stroke-width="3" stroke-linecap="round" opacity="0.55"/><rect x="1120.0" y="414.0" width="360.0" height="48.0" rx="10" ry="10" fill="#7c3aed"/><text x="1300" y="434" text-anchor="middle" font-size="14.5" font-weight="700" fill="#ffffff" font-family="Arial, sans-serif">SPECTROSCOPIC DATA ANALYSIS</text><text x="1300" y="453" text-anchor="middle" font-size="11.5" font-weight="500" fill="#ffffff" opacity="0.85" font-family="Arial, sans-serif">Data-based practical . HL</text><rect x="1080.0" y="476.0" width="440.0" height="116.0" rx="10" ry="10" fill="#f5f3ff" stroke="#c4b5fd" stroke-width="1.5"/><circle cx="1100.0" cy="499.0" r="2.6" fill="#7c3aed"/><text x="1110.0" y="503.0" font-size="11.8" fill="#4c1d95" font-family="Arial, sans-serif">Use real IR, MS and 1H NMR spectra to elucidate an unknown</text><circle cx="1100.0" cy="521.0" r="2.6" fill="#7c3aed"/><text x="1110.0" y="525.0" font-size="11.8" fill="#4c1d95" font-family="Arial, sans-serif">Combine chemical shift, splitting and integration data</text><circle cx="1100.0" cy="543.0" r="2.6" fill="#7c3aed"/><text x="1110.0" y="547.0" font-size="11.8" fill="#4c1d95" font-family="Arial, sans-serif">Cross-check MS fragmentation against candidate structures</text><circle cx="1100.0" cy="565.0" r="2.6" fill="#7c3aed"/><text x="1110.0" y="569.0" font-size="11.8" fill="#4c1d95" font-family="Arial, sans-serif">Use spectral databases (e.g. SDBS, NIST WebBook) for practice</text><path d="M 1030.0 780.0 C 1075.0 780.0, 1075.0 646.0, 1120.0 646.0" fill="none" stroke="#7c3aed" stroke-width="3" stroke-linecap="round" opacity="0.55"/><rect x="1120.0" y="622.0" width="360.0" height="48.0" rx="10" ry="10" fill="#7c3aed"/><text x="1300" y="642" text-anchor="middle" font-size="14.5" font-weight="700" fill="#ffffff" font-family="Arial, sans-serif">POLYMER SYNTHESIS &amp; ANALYSIS</text><text x="1300" y="661" text-anchor="middle" font-size="11.5" font-weight="500" fill="#ffffff" opacity="0.85" font-family="Arial, sans-serif">Modelling . HL</text><rect x="1080.0" y="684.0" width="440.0" height="116.0" rx="10" ry="10" fill="#f5f3ff" stroke="#c4b5fd" stroke-width="1.5"/><circle cx="1100.0" cy="707.0" r="2.6" fill="#7c3aed"/><text x="1110.0" y="711.0" font-size="11.8" fill="#4c1d95" font-family="Arial, sans-serif">Nylon-6,6 "rope trick": classic condensation polymer demo</text><circle cx="1100.0" cy="729.0" r="2.6" fill="#7c3aed"/><text x="1110.0" y="733.0" font-size="11.8" fill="#4c1d95" font-family="Arial, sans-serif">Prepare a polyester from a diol and a diacid/diacid chloride</text><circle cx="1100.0" cy="751.0" r="2.6" fill="#7c3aed"/><text x="1110.0" y="755.0" font-size="11.8" fill="#4c1d95" font-family="Arial, sans-serif">Compare addition vs condensation polymer properties</text><circle cx="1100.0" cy="773.0" r="2.6" fill="#7c3aed"/><text x="1110.0" y="777.0" font-size="11.8" fill="#4c1d95" font-family="Arial, sans-serif">Link monomer functional groups to the linkage formed</text><path d="M 1030.0 780.0 C 1075.0 780.0, 1075.0 854.0, 1120.0 854.0" fill="none" stroke="#7c3aed" stroke-width="3" stroke-linecap="round" opacity="0.55"/><rect x="1120.0" y="830.0" width="360.0" height="48.0" rx="10" ry="10" fill="#7c3aed"/><text x="1300" y="850" text-anchor="middle" font-size="14.5" font-weight="700" fill="#ffffff" font-family="Arial, sans-serif">STEREOCHEMISTRY INVESTIGATION</text><text x="1300" y="869" text-anchor="middle" font-size="11.5" font-weight="500" fill="#ffffff" opacity="0.85" font-family="Arial, sans-serif">Optical activity . HL</text><rect x="1080.0" y="892.0" width="440.0" height="116.0" rx="10" ry="10" fill="#f5f3ff" stroke="#c4b5fd" stroke-width="1.5"/><circle cx="1100.0" cy="915.0" r="2.6" fill="#7c3aed"/><text x="1110.0" y="919.0" font-size="11.8" fill="#4c1d95" font-family="Arial, sans-serif">Use a polarimeter to measure optical rotation of enantiomers</text><circle cx="1100.0" cy="937.0" r="2.6" fill="#7c3aed"/><text x="1110.0" y="941.0" font-size="11.8" fill="#4c1d95" font-family="Arial, sans-serif">Distinguish a pure enantiomer from a racemic mixture</text><circle cx="1100.0" cy="959.0" r="2.6" fill="#7c3aed"/><text x="1110.0" y="963.0" font-size="11.8" fill="#4c1d95" font-family="Arial, sans-serif">Build tetrahedral models to identify chiral centres</text><circle cx="1100.0" cy="981.0" r="2.6" fill="#7c3aed"/><text x="1110.0" y="985.0" font-size="11.8" fill="#4c1d95" font-family="Arial, sans-serif">Relate rotation direction/magnitude to sample concentration</text><path d="M 1030.0 780.0 C 1075.0 780.0, 1075.0 1062.0, 1120.0 1062.0" fill="none" stroke="#0d9488" stroke-width="3" stroke-linecap="round" opacity="0.55"/><rect x="1120.0" y="1038.0" width="360.0" height="48.0" rx="10" ry="10" fill="#0d9488"/><text x="1300" y="1058" text-anchor="middle" font-size="14.5" font-weight="700" fill="#ffffff" font-family="Arial, sans-serif">SIMULATIONS &amp; VIRTUAL LABS</text><text x="1300" y="1077" text-anchor="middle" font-size="11.5" font-weight="500" fill="#ffffff" opacity="0.85" font-family="Arial, sans-serif">Simulations</text><rect x="1080.0" y="1100.0" width="440.0" height="160.0" rx="10" ry="10" fill="#f0fdfa" stroke="#5eead4" stroke-width="1.5"/><circle cx="1100.0" cy="1123.0" r="2.6" fill="#0d9488"/><text x="1110.0" y="1127.0" font-size="11.8" fill="#134e4a" font-family="Arial, sans-serif">ChemCollective virtual labs - simulated organic synthesis &amp; titration</text><circle cx="1100.0" cy="1145.0" r="2.6" fill="#0d9488"/><text x="1110.0" y="1149.0" font-size="11.8" fill="#134e4a" font-family="Arial, sans-serif">MolView.org - build organic molecules and view 3D structures</text><circle cx="1100.0" cy="1167.0" r="2.6" fill="#0d9488"/><text x="1110.0" y="1171.0" font-size="11.8" fill="#134e4a" font-family="Arial, sans-serif">ChemDoodle / ChemSketch - draw structures, predict IR/NMR shifts</text><circle cx="1100.0" cy="1189.0" r="2.6" fill="#0d9488"/><text x="1110.0" y="1193.0" font-size="11.8" fill="#134e4a" font-family="Arial, sans-serif">nmrdb.org - predict and interactively explore 1H NMR spectra</text><circle cx="1100.0" cy="1211.0" r="2.6" fill="#0d9488"/><text x="1110.0" y="1215.0" font-size="11.8" fill="#134e4a" font-family="Arial, sans-serif">SDBS (Spectral Database) - real IR/MS/NMR spectra for practice</text><circle cx="1100.0" cy="1233.0" r="2.6" fill="#0d9488"/><text x="1110.0" y="1237.0" font-size="11.8" fill="#134e4a" font-family="Arial, sans-serif">PhET 'Build a Molecule' - construct organic molecules from atoms</text><rect x="30.0" y="1506.0" width="16.0" height="16.0" rx="4" ry="4" fill="#2563eb"/><text x="54" y="1519" font-size="13" fill="#1e293b" font-family="Arial, sans-serif">Core practicals (SL &amp; HL)</text><rect x="320.0" y="1506.0" width="16.0" height="16.0" rx="4" ry="4" fill="#7c3aed"/><text x="344" y="1519" font-size="13" fill="#1e293b" font-family="Arial, sans-serif">Advanced synthesis &amp; analysis (HL)</text><rect x="660.0" y="1506.0" width="16.0" height="16.0" rx="4" ry="4" fill="#0d9488"/><text x="684" y="1519" font-size="13" fill="#1e293b" font-family="Arial, sans-serif">Simulations</text><text x="1730" y="1519" text-anchor="end" font-size="11" fill="#94a3b8" font-family="Arial, sans-serif">Standard school-lab, synthesis &amp; simulation resources for IB Chemistry</text></svg>