<?xml version="1.0" encoding="UTF-8" standalone="no"?><svg viewBox="0 0 1700 1260" xmlns="http://www.w3.org/2000/svg" role="img"><title>IB Chemistry HL Acids and Bases Practical Labs Mind Map</title><rect x="0" y="0" width="1700" height="1260" fill="#ffffff"/><text x="850.0" y="42" text-anchor="middle" font-size="26" font-weight="800" fill="#0f172a" font-family="Arial, sans-serif">IB Chemistry HL — Acids &amp; Bases Practical Labs</text><text x="850.0" y="66" text-anchor="middle" font-size="14" fill="#475569" font-family="Arial, sans-serif">Laboratory experiments &amp; IA ideas for Reactivity 3.1 "Proton transfer reactions"</text><rect x="700.0" y="582.0" width="300.0" height="96.0" rx="16" ry="16" fill="#0f172a"/><text x="850" y="622" text-anchor="middle" font-size="19" font-weight="800" fill="#ffffff" font-family="Arial, sans-serif">ACIDS &amp; BASES LABS</text><text x="850" y="646" text-anchor="middle" font-size="12.5" fill="#cbd5e1" font-family="Arial, sans-serif">Practical experiments — HL Chemistry</text><path d="M 580.0 245.0 C 640.0 245.0, 640.0 630.0, 700.0 630.0" fill="none" stroke="#2563eb" stroke-width="3" stroke-linecap="round" opacity="0.55"/><rect x="260.0" y="221.0" width="320.0" height="48.0" rx="10" ry="10" fill="#2563eb"/><text x="420" y="241" text-anchor="middle" font-size="15" font-weight="700" fill="#ffffff" font-family="Arial, sans-serif">pH MEASUREMENT TECHNIQUES</text><text x="420" y="260" text-anchor="middle" font-size="11.5" font-weight="500" fill="#ffffff" opacity="0.85" font-family="Arial, sans-serif">Technique</text><rect x="220.0" y="283.0" width="400.0" height="126.0" rx="10" ry="10" fill="#eff6ff" stroke="#93c5fd" stroke-width="1.5"/><circle cx="240.0" cy="308.0" r="2.8" fill="#2563eb"/><text x="250.0" y="312.0" font-size="12.3" fill="#1e3a8a" font-family="Arial, sans-serif">Universal indicator: estimate pH by colour match</text><circle cx="240.0" cy="332.0" r="2.8" fill="#2563eb"/><text x="250.0" y="336.0" font-size="12.3" fill="#1e3a8a" font-family="Arial, sans-serif">pH meter/probe: precise, calibrated with buffer solutions</text><circle cx="240.0" cy="356.0" r="2.8" fill="#2563eb"/><text x="250.0" y="360.0" font-size="12.3" fill="#1e3a8a" font-family="Arial, sans-serif">Test household/lab solutions across the pH scale</text><circle cx="240.0" cy="380.0" r="2.8" fill="#2563eb"/><text x="250.0" y="384.0" font-size="12.3" fill="#1e3a8a" font-family="Arial, sans-serif">Compare digital sensor vs analogue (pH paper) suitability</text><path d="M 580.0 500.0 C 640.0 500.0, 640.0 630.0, 700.0 630.0" fill="none" stroke="#2563eb" stroke-width="3" stroke-linecap="round" opacity="0.55"/><rect x="260.0" y="476.0" width="320.0" height="48.0" rx="10" ry="10" fill="#2563eb"/><text x="420" y="496" text-anchor="middle" font-size="15" font-weight="700" fill="#ffffff" font-family="Arial, sans-serif">STRONG VS WEAK COMPARISONS</text><text x="420" y="515" text-anchor="middle" font-size="11.5" font-weight="500" fill="#ffffff" opacity="0.85" font-family="Arial, sans-serif">Qualitative</text><rect x="220.0" y="538.0" width="400.0" height="126.0" rx="10" ry="10" fill="#eff6ff" stroke="#93c5fd" stroke-width="1.5"/><circle cx="240.0" cy="563.0" r="2.8" fill="#2563eb"/><text x="250.0" y="567.0" font-size="12.3" fill="#1e3a8a" font-family="Arial, sans-serif">Compare pH of equal-concentration HCl vs ethanoic acid</text><circle cx="240.0" cy="587.0" r="2.8" fill="#2563eb"/><text x="250.0" y="591.0" font-size="12.3" fill="#1e3a8a" font-family="Arial, sans-serif">Conductivity comparison: strong electrolyte vs weak</text><circle cx="240.0" cy="611.0" r="2.8" fill="#2563eb"/><text x="250.0" y="615.0" font-size="12.3" fill="#1e3a8a" font-family="Arial, sans-serif">Reaction rate with Mg or Na2CO3: strong acid reacts faster</text><circle cx="240.0" cy="635.0" r="2.8" fill="#2563eb"/><text x="250.0" y="639.0" font-size="12.3" fill="#1e3a8a" font-family="Arial, sans-serif">Same-concentration test isolates strength, not concentration</text><path d="M 580.0 755.0 C 640.0 755.0, 640.0 630.0, 700.0 630.0" fill="none" stroke="#2563eb" stroke-width="3" stroke-linecap="round" opacity="0.55"/><rect x="260.0" y="731.0" width="320.0" height="48.0" rx="10" ry="10" fill="#2563eb"/><text x="420" y="751" text-anchor="middle" font-size="15" font-weight="700" fill="#ffffff" font-family="Arial, sans-serif">ACID-BASE TITRATION TECHNIQUE</text><text x="420" y="770" text-anchor="middle" font-size="11.5" font-weight="500" fill="#ffffff" opacity="0.85" font-family="Arial, sans-serif">Quantitative</text><rect x="220.0" y="793.0" width="400.0" height="126.0" rx="10" ry="10" fill="#eff6ff" stroke="#93c5fd" stroke-width="1.5"/><circle cx="240.0" cy="818.0" r="2.8" fill="#2563eb"/><text x="250.0" y="822.0" font-size="12.3" fill="#1e3a8a" font-family="Arial, sans-serif">Standard NaOH/HCl titration using burette + pipette</text><circle cx="240.0" cy="842.0" r="2.8" fill="#2563eb"/><text x="250.0" y="846.0" font-size="12.3" fill="#1e3a8a" font-family="Arial, sans-serif">Indicator marks the end point (colour change)</text><circle cx="240.0" cy="866.0" r="2.8" fill="#2563eb"/><text x="250.0" y="870.0" font-size="12.3" fill="#1e3a8a" font-family="Arial, sans-serif">Calculate unknown concentration via mole ratio</text><circle cx="240.0" cy="890.0" r="2.8" fill="#2563eb"/><text x="250.0" y="894.0" font-size="12.3" fill="#1e3a8a" font-family="Arial, sans-serif">Repeat for concordant titres (within 0.1 cm3)</text><path d="M 580.0 1010.0 C 640.0 1010.0, 640.0 630.0, 700.0 630.0" fill="none" stroke="#2563eb" stroke-width="3" stroke-linecap="round" opacity="0.55"/><rect x="260.0" y="986.0" width="320.0" height="48.0" rx="10" ry="10" fill="#2563eb"/><text x="420" y="1006" text-anchor="middle" font-size="15" font-weight="700" fill="#ffffff" font-family="Arial, sans-serif">NEUTRALIZATION REACTIONS DEMO</text><text x="420" y="1025" text-anchor="middle" font-size="11.5" font-weight="500" fill="#ffffff" opacity="0.85" font-family="Arial, sans-serif">Qualitative</text><rect x="220.0" y="1048.0" width="400.0" height="126.0" rx="10" ry="10" fill="#eff6ff" stroke="#93c5fd" stroke-width="1.5"/><circle cx="240.0" cy="1073.0" r="2.8" fill="#2563eb"/><text x="250.0" y="1077.0" font-size="12.3" fill="#1e3a8a" font-family="Arial, sans-serif">Acid + metal oxide/hydroxide -&gt; salt + water</text><circle cx="240.0" cy="1097.0" r="2.8" fill="#2563eb"/><text x="250.0" y="1101.0" font-size="12.3" fill="#1e3a8a" font-family="Arial, sans-serif">Acid + carbonate/hydrogencarbonate -&gt; salt + water + CO2</text><circle cx="240.0" cy="1121.0" r="2.8" fill="#2563eb"/><text x="250.0" y="1125.0" font-size="12.3" fill="#1e3a8a" font-family="Arial, sans-serif">Identify the parent acid &amp; base of a given salt</text><circle cx="240.0" cy="1145.0" r="2.8" fill="#2563eb"/><text x="250.0" y="1149.0" font-size="12.3" fill="#1e3a8a" font-family="Arial, sans-serif">Neutralization is exothermic - links to calorimetry</text><path d="M 1000.0 630.0 C 1060.0 630.0, 1060.0 245.0, 1120.0 245.0" fill="none" stroke="#7c3aed" stroke-width="3" stroke-linecap="round" opacity="0.55"/><rect x="1120.0" y="221.0" width="320.0" height="48.0" rx="10" ry="10" fill="#7c3aed"/><text x="1280" y="241" text-anchor="middle" font-size="15" font-weight="700" fill="#ffffff" font-family="Arial, sans-serif">TITRATION (pH) CURVES</text><text x="1280" y="260" text-anchor="middle" font-size="11.5" font-weight="500" fill="#ffffff" opacity="0.85" font-family="Arial, sans-serif">All combinations . HL</text><rect x="1080.0" y="283.0" width="400.0" height="126.0" rx="10" ry="10" fill="#f5f3ff" stroke="#c4b5fd" stroke-width="1.5"/><circle cx="1100.0" cy="308.0" r="2.8" fill="#7c3aed"/><text x="1110.0" y="312.0" font-size="12.3" fill="#4c1d95" font-family="Arial, sans-serif">Use pH probe/datalogger while adding titrant dropwise</text><circle cx="1100.0" cy="332.0" r="2.8" fill="#7c3aed"/><text x="1110.0" y="336.0" font-size="12.3" fill="#4c1d95" font-family="Arial, sans-serif">Collect all 4 combos: strong/weak acid vs strong/weak base</text><circle cx="1100.0" cy="356.0" r="2.8" fill="#7c3aed"/><text x="1110.0" y="360.0" font-size="12.3" fill="#4c1d95" font-family="Arial, sans-serif">Identify equivalence point &amp; buffer region on each curve</text><circle cx="1100.0" cy="380.0" r="2.8" fill="#7c3aed"/><text x="1110.0" y="384.0" font-size="12.3" fill="#4c1d95" font-family="Arial, sans-serif">Add smaller titrant volumes near the equivalence point</text><path d="M 1000.0 630.0 C 1060.0 630.0, 1060.0 500.0, 1120.0 500.0" fill="none" stroke="#7c3aed" stroke-width="3" stroke-linecap="round" opacity="0.55"/><rect x="1120.0" y="476.0" width="320.0" height="48.0" rx="10" ry="10" fill="#7c3aed"/><text x="1280" y="496" text-anchor="middle" font-size="15" font-weight="700" fill="#ffffff" font-family="Arial, sans-serif">DETERMINING Ka/pKa EXPERIMENTALLY</text><text x="1280" y="515" text-anchor="middle" font-size="11.5" font-weight="500" fill="#ffffff" opacity="0.85" font-family="Arial, sans-serif">HL</text><rect x="1080.0" y="538.0" width="400.0" height="126.0" rx="10" ry="10" fill="#f5f3ff" stroke="#c4b5fd" stroke-width="1.5"/><circle cx="1100.0" cy="563.0" r="2.8" fill="#7c3aed"/><text x="1110.0" y="567.0" font-size="12.3" fill="#4c1d95" font-family="Arial, sans-serif">Half-equivalence point: pH = pKa (from titration curve)</text><circle cx="1100.0" cy="587.0" r="2.8" fill="#7c3aed"/><text x="1110.0" y="591.0" font-size="12.3" fill="#4c1d95" font-family="Arial, sans-serif">Measure pH of a weak acid solution of known concentration</text><circle cx="1100.0" cy="611.0" r="2.8" fill="#7c3aed"/><text x="1110.0" y="615.0" font-size="12.3" fill="#4c1d95" font-family="Arial, sans-serif">Calculate Ka from [H+] and initial concentration</text><circle cx="1100.0" cy="635.0" r="2.8" fill="#7c3aed"/><text x="1110.0" y="639.0" font-size="12.3" fill="#4c1d95" font-family="Arial, sans-serif">Compare experimental Ka to the data-booklet value</text><path d="M 1000.0 630.0 C 1060.0 630.0, 1060.0 755.0, 1120.0 755.0" fill="none" stroke="#7c3aed" stroke-width="3" stroke-linecap="round" opacity="0.55"/><rect x="1120.0" y="731.0" width="320.0" height="48.0" rx="10" ry="10" fill="#7c3aed"/><text x="1280" y="751" text-anchor="middle" font-size="15" font-weight="700" fill="#ffffff" font-family="Arial, sans-serif">INDICATOR SELECTION INVESTIGATIONS</text><text x="1280" y="770" text-anchor="middle" font-size="11.5" font-weight="500" fill="#ffffff" opacity="0.85" font-family="Arial, sans-serif">HL</text><rect x="1080.0" y="793.0" width="400.0" height="126.0" rx="10" ry="10" fill="#f5f3ff" stroke="#c4b5fd" stroke-width="1.5"/><circle cx="1100.0" cy="818.0" r="2.8" fill="#7c3aed"/><text x="1110.0" y="822.0" font-size="12.3" fill="#4c1d95" font-family="Arial, sans-serif">Trial different indicators across the same titration</text><circle cx="1100.0" cy="842.0" r="2.8" fill="#7c3aed"/><text x="1110.0" y="846.0" font-size="12.3" fill="#4c1d95" font-family="Arial, sans-serif">Match an indicator's colour-change range to equivalence pH</text><circle cx="1100.0" cy="866.0" r="2.8" fill="#7c3aed"/><text x="1110.0" y="870.0" font-size="12.3" fill="#4c1d95" font-family="Arial, sans-serif">Compare observed "end point" vs true equivalence point</text><circle cx="1100.0" cy="890.0" r="2.8" fill="#7c3aed"/><text x="1110.0" y="894.0" font-size="12.3" fill="#4c1d95" font-family="Arial, sans-serif">Universal indicator vs single-component indicators</text><path d="M 1000.0 630.0 C 1060.0 630.0, 1060.0 1010.0, 1120.0 1010.0" fill="none" stroke="#7c3aed" stroke-width="3" stroke-linecap="round" opacity="0.55"/><rect x="1120.0" y="986.0" width="320.0" height="48.0" rx="10" ry="10" fill="#7c3aed"/><text x="1280" y="1006" text-anchor="middle" font-size="15" font-weight="700" fill="#ffffff" font-family="Arial, sans-serif">BUFFER PREP &amp; IA EXTENSION IDEAS</text><text x="1280" y="1025" text-anchor="middle" font-size="11.5" font-weight="500" fill="#ffffff" opacity="0.85" font-family="Arial, sans-serif">HL</text><rect x="1080.0" y="1048.0" width="400.0" height="150.0" rx="10" ry="10" fill="#f5f3ff" stroke="#c4b5fd" stroke-width="1.5"/><circle cx="1100.0" cy="1073.0" r="2.8" fill="#7c3aed"/><text x="1110.0" y="1077.0" font-size="12.3" fill="#4c1d95" font-family="Arial, sans-serif">Prepare an acidic buffer (weak acid + salt) and a basic one</text><circle cx="1100.0" cy="1097.0" r="2.8" fill="#7c3aed"/><text x="1110.0" y="1101.0" font-size="12.3" fill="#4c1d95" font-family="Arial, sans-serif">Test pH resistance: add small acid/alkali, measure change</text><circle cx="1100.0" cy="1121.0" r="2.8" fill="#7c3aed"/><text x="1110.0" y="1125.0" font-size="12.3" fill="#4c1d95" font-family="Arial, sans-serif">Compare buffer response vs an unbuffered solution</text><circle cx="1100.0" cy="1145.0" r="2.8" fill="#7c3aed"/><text x="1110.0" y="1149.0" font-size="12.3" fill="#4c1d95" font-family="Arial, sans-serif">Investigate salt hydrolysis: pH of NH4Cl, CH3COONa, Na2CO3</text><circle cx="1100.0" cy="1169.0" r="2.8" fill="#7c3aed"/><text x="1110.0" y="1173.0" font-size="12.3" fill="#4c1d95" font-family="Arial, sans-serif">Investigate the effect of dilution on buffer pH</text><rect x="30.0" y="1190.0" width="16.0" height="16.0" rx="4" ry="4" fill="#2563eb"/><text x="54" y="1203" font-size="13" fill="#1e293b" font-family="Arial, sans-serif">Core techniques &amp; demos (SL &amp; HL)</text><rect x="340.0" y="1190.0" width="16.0" height="16.0" rx="4" ry="4" fill="#7c3aed"/><text x="364" y="1203" font-size="13" fill="#1e293b" font-family="Arial, sans-serif">Quantitative acid-base analysis &amp; IA ideas (HL)</text><text x="1670" y="1203" text-anchor="end" font-size="11" fill="#94a3b8" font-family="Arial, sans-serif">Standard school-lab practicals compiled from IB Chemistry teaching resources</text></svg>