<?xml version="1.0" encoding="UTF-8" standalone="no"?><svg viewBox="0 0 1700 1220" xmlns="http://www.w3.org/2000/svg" role="img"><title>IB Chemistry HL Redox Practical Labs Mind Map</title><rect x="0" y="0" width="1700" height="1220" fill="#ffffff"/><text x="850.0" y="42" text-anchor="middle" font-size="26" font-weight="800" fill="#0f172a" font-family="Arial, sans-serif">IB Chemistry HL — Redox Practical Labs</text><text x="850.0" y="66" text-anchor="middle" font-size="14" fill="#475569" font-family="Arial, sans-serif">Laboratory experiments &amp; IA ideas for Reactivity 3.2 "Electron transfer reactions"</text><rect x="700.0" y="562.0" width="300.0" height="96.0" rx="16" ry="16" fill="#0f172a"/><text x="850" y="602" text-anchor="middle" font-size="20" font-weight="800" fill="#ffffff" font-family="Arial, sans-serif">REDOX LABS</text><text x="850" y="626" text-anchor="middle" font-size="12.5" fill="#cbd5e1" font-family="Arial, sans-serif">Practical experiments — HL Chemistry</text><path d="M 560.0 235.0 C 630.0 235.0, 630.0 610.0, 700.0 610.0" fill="none" stroke="#2563eb" stroke-width="3" stroke-linecap="round" opacity="0.55"/><rect x="260.0" y="211.0" width="300.0" height="48.0" rx="10" ry="10" fill="#2563eb"/><text x="410" y="231" text-anchor="middle" font-size="15" font-weight="700" fill="#ffffff" font-family="Arial, sans-serif">DISPLACEMENT &amp; REACTIVITY DEMOS</text><text x="410" y="250" text-anchor="middle" font-size="11.5" font-weight="500" fill="#ffffff" opacity="0.85" font-family="Arial, sans-serif">Qualitative</text><rect x="220.0" y="273.0" width="380.0" height="150.0" rx="10" ry="10" fill="#eff6ff" stroke="#93c5fd" stroke-width="1.5"/><circle cx="240.0" cy="298.0" r="2.8" fill="#2563eb"/><text x="250.0" y="302.0" font-size="12.3" fill="#1e3a8a" font-family="Arial, sans-serif">Zn(s) + CuSO4(aq) -&gt; Cu deposit, blue fades</text><circle cx="240.0" cy="322.0" r="2.8" fill="#2563eb"/><text x="250.0" y="326.0" font-size="12.3" fill="#1e3a8a" font-family="Arial, sans-serif">Cu(s) + AgNO3(aq) -&gt; silver "tree" forms</text><circle cx="240.0" cy="346.0" r="2.8" fill="#2563eb"/><text x="250.0" y="350.0" font-size="12.3" fill="#1e3a8a" font-family="Arial, sans-serif">Halogen + halide: Cl2/Br2/I2 with KBr/KI in hexane</text><circle cx="240.0" cy="370.0" r="2.8" fill="#2563eb"/><text x="250.0" y="374.0" font-size="12.3" fill="#1e3a8a" font-family="Arial, sans-serif">Reactive metals (Mg,Zn,Fe) + dilute acid -&gt; H2 gas rate</text><circle cx="240.0" cy="394.0" r="2.8" fill="#2563eb"/><text x="250.0" y="398.0" font-size="12.3" fill="#1e3a8a" font-family="Arial, sans-serif">Compare observations to reactivity series predictions</text><path d="M 560.0 485.0 C 630.0 485.0, 630.0 610.0, 700.0 610.0" fill="none" stroke="#2563eb" stroke-width="3" stroke-linecap="round" opacity="0.55"/><rect x="260.0" y="461.0" width="300.0" height="48.0" rx="10" ry="10" fill="#2563eb"/><text x="410" y="481" text-anchor="middle" font-size="15" font-weight="700" fill="#ffffff" font-family="Arial, sans-serif">ELECTROLYSIS DEMONSTRATIONS</text><text x="410" y="500" text-anchor="middle" font-size="11.5" font-weight="500" fill="#ffffff" opacity="0.85" font-family="Arial, sans-serif">Qualitative</text><rect x="220.0" y="523.0" width="380.0" height="150.0" rx="10" ry="10" fill="#eff6ff" stroke="#93c5fd" stroke-width="1.5"/><circle cx="240.0" cy="548.0" r="2.8" fill="#2563eb"/><text x="250.0" y="552.0" font-size="12.3" fill="#1e3a8a" font-family="Arial, sans-serif">Molten salt electrolysis (e.g. PbBr2) - ions only</text><circle cx="240.0" cy="572.0" r="2.8" fill="#2563eb"/><text x="250.0" y="576.0" font-size="12.3" fill="#1e3a8a" font-family="Arial, sans-serif">Electrolysis of water (Hofmann voltameter) -&gt; H2:O2 = 2:1</text><circle cx="240.0" cy="596.0" r="2.8" fill="#2563eb"/><text x="250.0" y="600.0" font-size="12.3" fill="#1e3a8a" font-family="Arial, sans-serif">CuSO4(aq) electrolysis with inert graphite electrodes</text><circle cx="240.0" cy="620.0" r="2.8" fill="#2563eb"/><text x="250.0" y="624.0" font-size="12.3" fill="#1e3a8a" font-family="Arial, sans-serif">NaCl(aq) electrolysis -&gt; Cl2 at anode, H2 at cathode</text><circle cx="240.0" cy="644.0" r="2.8" fill="#2563eb"/><text x="250.0" y="648.0" font-size="12.3" fill="#1e3a8a" font-family="Arial, sans-serif">Test gases: glowing splint, pop test, bleaching</text><path d="M 560.0 735.0 C 630.0 735.0, 630.0 610.0, 700.0 610.0" fill="none" stroke="#2563eb" stroke-width="3" stroke-linecap="round" opacity="0.55"/><rect x="260.0" y="711.0" width="300.0" height="48.0" rx="10" ry="10" fill="#2563eb"/><text x="410" y="731" text-anchor="middle" font-size="15" font-weight="700" fill="#ffffff" font-family="Arial, sans-serif">ORGANIC REDOX REACTIONS (LAB)</text><text x="410" y="750" text-anchor="middle" font-size="11.5" font-weight="500" fill="#ffffff" opacity="0.85" font-family="Arial, sans-serif">Qualitative</text><rect x="220.0" y="773.0" width="380.0" height="150.0" rx="10" ry="10" fill="#eff6ff" stroke="#93c5fd" stroke-width="1.5"/><circle cx="240.0" cy="798.0" r="2.8" fill="#2563eb"/><text x="250.0" y="802.0" font-size="12.3" fill="#1e3a8a" font-family="Arial, sans-serif">Acidified K2Cr2O7 + ethanol - distil (aldehyde) vs reflux (acid)</text><circle cx="240.0" cy="822.0" r="2.8" fill="#2563eb"/><text x="250.0" y="826.0" font-size="12.3" fill="#1e3a8a" font-family="Arial, sans-serif">Colour change orange -&gt; green confirms oxidation</text><circle cx="240.0" cy="846.0" r="2.8" fill="#2563eb"/><text x="250.0" y="850.0" font-size="12.3" fill="#1e3a8a" font-family="Arial, sans-serif">Tollens'/Fehling's test distinguishes aldehyde from ketone</text><circle cx="240.0" cy="870.0" r="2.8" fill="#2563eb"/><text x="250.0" y="874.0" font-size="12.3" fill="#1e3a8a" font-family="Arial, sans-serif">Reduction of carbonyls with NaBH4 -&gt; alcohols</text><circle cx="240.0" cy="894.0" r="2.8" fill="#2563eb"/><text x="250.0" y="898.0" font-size="12.3" fill="#1e3a8a" font-family="Arial, sans-serif">Tertiary alcohols resist oxidation (control)</text><path d="M 560.0 985.0 C 630.0 985.0, 630.0 610.0, 700.0 610.0" fill="none" stroke="#2563eb" stroke-width="3" stroke-linecap="round" opacity="0.55"/><rect x="260.0" y="961.0" width="300.0" height="48.0" rx="10" ry="10" fill="#2563eb"/><text x="410" y="981" text-anchor="middle" font-size="15" font-weight="700" fill="#ffffff" font-family="Arial, sans-serif">REDOX TITRATIONS</text><text x="410" y="1000" text-anchor="middle" font-size="11.5" font-weight="500" fill="#ffffff" opacity="0.85" font-family="Arial, sans-serif">Quantitative analysis</text><rect x="220.0" y="1023.0" width="380.0" height="126.0" rx="10" ry="10" fill="#eff6ff" stroke="#93c5fd" stroke-width="1.5"/><circle cx="240.0" cy="1048.0" r="2.8" fill="#2563eb"/><text x="250.0" y="1052.0" font-size="12.3" fill="#1e3a8a" font-family="Arial, sans-serif">KMnO4 titration (self-indicating) -&gt; Fe2+, oxalate, H2O2</text><circle cx="240.0" cy="1072.0" r="2.8" fill="#2563eb"/><text x="250.0" y="1076.0" font-size="12.3" fill="#1e3a8a" font-family="Arial, sans-serif">Iodine-thiosulfate titration -&gt; vitamin C, Cu2+ conc.</text><circle cx="240.0" cy="1096.0" r="2.8" fill="#2563eb"/><text x="250.0" y="1100.0" font-size="12.3" fill="#1e3a8a" font-family="Arial, sans-serif">Dichromate titration -&gt; ethanol/alcohol content</text><circle cx="240.0" cy="1120.0" r="2.8" fill="#2563eb"/><text x="250.0" y="1124.0" font-size="12.3" fill="#1e3a8a" font-family="Arial, sans-serif">Standardize titrant, find unknown via mole ratio</text><path d="M 1000.0 610.0 C 1070.0 610.0, 1070.0 235.0, 1140.0 235.0" fill="none" stroke="#7c3aed" stroke-width="3" stroke-linecap="round" opacity="0.55"/><rect x="1140.0" y="211.0" width="300.0" height="48.0" rx="10" ry="10" fill="#7c3aed"/><text x="1290" y="231" text-anchor="middle" font-size="15" font-weight="700" fill="#ffffff" font-family="Arial, sans-serif">VOLTAIC CELL CONSTRUCTION</text><text x="1290" y="250" text-anchor="middle" font-size="11.5" font-weight="500" fill="#ffffff" opacity="0.85" font-family="Arial, sans-serif">E°cell measurement • HL</text><rect x="1100.0" y="273.0" width="380.0" height="126.0" rx="10" ry="10" fill="#f5f3ff" stroke="#c4b5fd" stroke-width="1.5"/><circle cx="1120.0" cy="298.0" r="2.8" fill="#7c3aed"/><text x="1130.0" y="302.0" font-size="12.3" fill="#4c1d95" font-family="Arial, sans-serif">Build half-cells: metal electrode + metal-ion solution + salt bridge</text><circle cx="1120.0" cy="322.0" r="2.8" fill="#7c3aed"/><text x="1130.0" y="326.0" font-size="12.3" fill="#4c1d95" font-family="Arial, sans-serif">Measure EMF with voltmeter, compare to data-booklet E°</text><circle cx="1120.0" cy="346.0" r="2.8" fill="#7c3aed"/><text x="1130.0" y="350.0" font-size="12.3" fill="#4c1d95" font-family="Arial, sans-serif">Vary metal/ion pairs to test E°cell = E°cathode - E°anode</text><circle cx="1120.0" cy="370.0" r="2.8" fill="#7c3aed"/><text x="1130.0" y="374.0" font-size="12.3" fill="#4c1d95" font-family="Arial, sans-serif">Simple cells: lemon/potato battery, Daniell cell demo</text><path d="M 1000.0 610.0 C 1070.0 610.0, 1070.0 485.0, 1140.0 485.0" fill="none" stroke="#7c3aed" stroke-width="3" stroke-linecap="round" opacity="0.55"/><rect x="1140.0" y="461.0" width="300.0" height="48.0" rx="10" ry="10" fill="#7c3aed"/><text x="1290" y="481" text-anchor="middle" font-size="15" font-weight="700" fill="#ffffff" font-family="Arial, sans-serif">PREDICTING ELECTROLYSIS PRODUCTS</text><text x="1290" y="500" text-anchor="middle" font-size="11.5" font-weight="500" fill="#ffffff" opacity="0.85" font-family="Arial, sans-serif">From E° data • HL</text><rect x="1100.0" y="523.0" width="380.0" height="126.0" rx="10" ry="10" fill="#f5f3ff" stroke="#c4b5fd" stroke-width="1.5"/><circle cx="1120.0" cy="548.0" r="2.8" fill="#7c3aed"/><text x="1130.0" y="552.0" font-size="12.3" fill="#4c1d95" font-family="Arial, sans-serif">Electrolyse NaCl(aq): predict O2 vs Cl2 at anode from E°</text><circle cx="1120.0" cy="572.0" r="2.8" fill="#7c3aed"/><text x="1130.0" y="576.0" font-size="12.3" fill="#4c1d95" font-family="Arial, sans-serif">Electrolyse CuSO4(aq): compare inert vs Cu electrodes</text><circle cx="1120.0" cy="596.0" r="2.8" fill="#7c3aed"/><text x="1130.0" y="600.0" font-size="12.3" fill="#4c1d95" font-family="Arial, sans-serif">Investigate concentration effect on competing reactions</text><circle cx="1120.0" cy="620.0" r="2.8" fill="#7c3aed"/><text x="1130.0" y="624.0" font-size="12.3" fill="#4c1d95" font-family="Arial, sans-serif">Compare predicted (E°) vs observed products</text><path d="M 1000.0 610.0 C 1070.0 610.0, 1070.0 735.0, 1140.0 735.0" fill="none" stroke="#7c3aed" stroke-width="3" stroke-linecap="round" opacity="0.55"/><rect x="1140.0" y="711.0" width="300.0" height="48.0" rx="10" ry="10" fill="#7c3aed"/><text x="1290" y="731" text-anchor="middle" font-size="15" font-weight="700" fill="#ffffff" font-family="Arial, sans-serif">ELECTROPLATING &amp; FARADAY'S LAW</text><text x="1290" y="750" text-anchor="middle" font-size="11.5" font-weight="500" fill="#ffffff" opacity="0.85" font-family="Arial, sans-serif">Quantitative • HL</text><rect x="1100.0" y="773.0" width="380.0" height="126.0" rx="10" ry="10" fill="#f5f3ff" stroke="#c4b5fd" stroke-width="1.5"/><circle cx="1120.0" cy="798.0" r="2.8" fill="#7c3aed"/><text x="1130.0" y="802.0" font-size="12.3" fill="#4c1d95" font-family="Arial, sans-serif">Copper-plate an object using acidified CuSO4(aq)</text><circle cx="1120.0" cy="822.0" r="2.8" fill="#7c3aed"/><text x="1130.0" y="826.0" font-size="12.3" fill="#4c1d95" font-family="Arial, sans-serif">Measure mass deposited vs charge passed (Q = It)</text><circle cx="1120.0" cy="846.0" r="2.8" fill="#7c3aed"/><text x="1130.0" y="850.0" font-size="12.3" fill="#4c1d95" font-family="Arial, sans-serif">Calculate moles of electrons / Faraday constant</text><circle cx="1120.0" cy="870.0" r="2.8" fill="#7c3aed"/><text x="1130.0" y="874.0" font-size="12.3" fill="#4c1d95" font-family="Arial, sans-serif">Investigate effect of current &amp; time on plating mass</text><path d="M 1000.0 610.0 C 1070.0 610.0, 1070.0 985.0, 1140.0 985.0" fill="none" stroke="#7c3aed" stroke-width="3" stroke-linecap="round" opacity="0.55"/><rect x="1140.0" y="961.0" width="300.0" height="48.0" rx="10" ry="10" fill="#7c3aed"/><text x="1290" y="981" text-anchor="middle" font-size="15" font-weight="700" fill="#ffffff" font-family="Arial, sans-serif">HL IA EXTENSION IDEAS</text><text x="1290" y="1000" text-anchor="middle" font-size="11.5" font-weight="500" fill="#ffffff" opacity="0.85" font-family="Arial, sans-serif">Investigations</text><rect x="1100.0" y="1023.0" width="380.0" height="126.0" rx="10" ry="10" fill="#f5f3ff" stroke="#c4b5fd" stroke-width="1.5"/><circle cx="1120.0" cy="1048.0" r="2.8" fill="#7c3aed"/><text x="1130.0" y="1052.0" font-size="12.3" fill="#4c1d95" font-family="Arial, sans-serif">Verify ΔG° = -nFE°cell using measured cell voltages</text><circle cx="1120.0" cy="1072.0" r="2.8" fill="#7c3aed"/><text x="1130.0" y="1076.0" font-size="12.3" fill="#4c1d95" font-family="Arial, sans-serif">Investigate factors affecting measured E°cell (conc., temp.)</text><circle cx="1120.0" cy="1096.0" r="2.8" fill="#7c3aed"/><text x="1130.0" y="1100.0" font-size="12.3" fill="#4c1d95" font-family="Arial, sans-serif">Corrosion/rusting rate as an electrochemical process</text><circle cx="1120.0" cy="1120.0" r="2.8" fill="#7c3aed"/><text x="1130.0" y="1124.0" font-size="12.3" fill="#4c1d95" font-family="Arial, sans-serif">Compare fuel cell, primary &amp; secondary cell efficiencies</text><rect x="30.0" y="1150.0" width="16.0" height="16.0" rx="4" ry="4" fill="#2563eb"/><text x="54" y="1163" font-size="13" fill="#1e293b" font-family="Arial, sans-serif">Qualitative demos &amp; SL/HL titration technique</text><rect x="470.0" y="1150.0" width="16.0" height="16.0" rx="4" ry="4" fill="#7c3aed"/><text x="494" y="1163" font-size="13" fill="#1e293b" font-family="Arial, sans-serif">Quantitative electrochemistry &amp; IA ideas (HL)</text><text x="1670" y="1163" text-anchor="end" font-size="11" fill="#94a3b8" font-family="Arial, sans-serif">Standard school-lab practicals compiled from IB Chemistry teaching resources</text></svg>
