<?xml version="1.0" encoding="UTF-8" standalone="no"?><svg viewBox="0 0 1700 1320" xmlns="http://www.w3.org/2000/svg" role="img"><title>IB Chemistry HL Atomic and Electronic Structure Practical Labs Mind Map</title><rect x="0" y="0" width="1700" height="1320" fill="#ffffff"/><text x="850.0" y="42" text-anchor="middle" font-size="26" font-weight="800" fill="#0f172a" font-family="Arial, sans-serif">IB Chemistry HL — Atomic &amp; Electronic Structure Labs</text><text x="850.0" y="66" text-anchor="middle" font-size="14" fill="#475569" font-family="Arial, sans-serif">Practical, data-based &amp; simulation work for Structure 1.2 "The nuclear atom" and Structure 1.3 "Electron configurations"</text><rect x="700.0" y="582.0" width="300.0" height="96.0" rx="16" ry="16" fill="#0f172a"/><text x="850" y="622" text-anchor="middle" font-size="17" font-weight="800" fill="#ffffff" font-family="Arial, sans-serif">ATOMIC STRUCTURE</text><text x="850" y="642" text-anchor="middle" font-size="17" font-weight="800" fill="#ffffff" font-family="Arial, sans-serif">LABS</text><text x="850" y="664" text-anchor="middle" font-size="11.5" fill="#cbd5e1" font-family="Arial, sans-serif">Practical &amp; data work — HL Chemistry</text><path d="M 600.0 245.0 C 650.0 245.0, 650.0 630.0, 700.0 630.0" fill="none" stroke="#2563eb" stroke-width="3" stroke-linecap="round" opacity="0.55"/><rect x="260.0" y="221.0" width="340.0" height="48.0" rx="10" ry="10" fill="#2563eb"/><text x="430" y="241" text-anchor="middle" font-size="15" font-weight="700" fill="#ffffff" font-family="Arial, sans-serif">VIEWING EMISSION SPECTRA</text><text x="430" y="260" text-anchor="middle" font-size="11.5" font-weight="500" fill="#ffffff" opacity="0.85" font-family="Arial, sans-serif">Spectroscope/diffraction grating</text><rect x="230.0" y="283.0" width="400.0" height="150.0" rx="10" ry="10" fill="#eff6ff" stroke="#93c5fd" stroke-width="1.5"/><circle cx="250.0" cy="308.0" r="2.8" fill="#2563eb"/><text x="260.0" y="312.0" font-size="12.3" fill="#1e3a8a" font-family="Arial, sans-serif">View gas discharge tubes (H, He, Ne, Hg) through a spectroscope</text><circle cx="250.0" cy="332.0" r="2.8" fill="#2563eb"/><text x="260.0" y="336.0" font-size="12.3" fill="#1e3a8a" font-family="Arial, sans-serif">Use a diffraction grating to separate spectral lines</text><circle cx="250.0" cy="356.0" r="2.8" fill="#2563eb"/><text x="260.0" y="360.0" font-size="12.3" fill="#1e3a8a" font-family="Arial, sans-serif">Compare a continuous spectrum (filament lamp) vs line spectra</text><circle cx="250.0" cy="380.0" r="2.8" fill="#2563eb"/><text x="260.0" y="384.0" font-size="12.3" fill="#1e3a8a" font-family="Arial, sans-serif">Sketch/record the line positions and colours observed</text><circle cx="250.0" cy="404.0" r="2.8" fill="#2563eb"/><text x="260.0" y="408.0" font-size="12.3" fill="#1e3a8a" font-family="Arial, sans-serif">Link line spacing to electron energy-level transitions</text><path d="M 600.0 500.0 C 650.0 500.0, 650.0 630.0, 700.0 630.0" fill="none" stroke="#2563eb" stroke-width="3" stroke-linecap="round" opacity="0.55"/><rect x="260.0" y="476.0" width="340.0" height="48.0" rx="10" ry="10" fill="#2563eb"/><text x="430" y="496" text-anchor="middle" font-size="15" font-weight="700" fill="#ffffff" font-family="Arial, sans-serif">ISOTOPE ABUNDANCE CALCULATIONS</text><text x="430" y="515" text-anchor="middle" font-size="11.5" font-weight="500" fill="#ffffff" opacity="0.85" font-family="Arial, sans-serif">Data processing</text><rect x="230.0" y="538.0" width="400.0" height="126.0" rx="10" ry="10" fill="#eff6ff" stroke="#93c5fd" stroke-width="1.5"/><circle cx="250.0" cy="563.0" r="2.8" fill="#2563eb"/><text x="260.0" y="567.0" font-size="12.3" fill="#1e3a8a" font-family="Arial, sans-serif">Given % abundance &amp; isotope masses, calculate Ar</text><circle cx="250.0" cy="587.0" r="2.8" fill="#2563eb"/><text x="260.0" y="591.0" font-size="12.3" fill="#1e3a8a" font-family="Arial, sans-serif">Use secondary data tables for various elements</text><circle cx="250.0" cy="611.0" r="2.8" fill="#2563eb"/><text x="260.0" y="615.0" font-size="12.3" fill="#1e3a8a" font-family="Arial, sans-serif">Compare calculated Ar to the periodic table value</text><circle cx="250.0" cy="635.0" r="2.8" fill="#2563eb"/><text x="260.0" y="639.0" font-size="12.3" fill="#1e3a8a" font-family="Arial, sans-serif">Understand why Ar is rarely a whole number</text><path d="M 600.0 755.0 C 650.0 755.0, 650.0 630.0, 700.0 630.0" fill="none" stroke="#2563eb" stroke-width="3" stroke-linecap="round" opacity="0.55"/><rect x="260.0" y="731.0" width="340.0" height="48.0" rx="10" ry="10" fill="#2563eb"/><text x="430" y="751" text-anchor="middle" font-size="15" font-weight="700" fill="#ffffff" font-family="Arial, sans-serif">ELECTRON CONFIGURATION MODELLING</text><text x="430" y="770" text-anchor="middle" font-size="11.5" font-weight="500" fill="#ffffff" opacity="0.85" font-family="Arial, sans-serif">Modelling activity</text><rect x="230.0" y="793.0" width="400.0" height="126.0" rx="10" ry="10" fill="#eff6ff" stroke="#93c5fd" stroke-width="1.5"/><circle cx="250.0" cy="818.0" r="2.8" fill="#2563eb"/><text x="260.0" y="822.0" font-size="12.3" fill="#1e3a8a" font-family="Arial, sans-serif">Build orbital (arrow-in-box) diagrams for atoms/ions</text><circle cx="250.0" cy="842.0" r="2.8" fill="#2563eb"/><text x="260.0" y="846.0" font-size="12.3" fill="#1e3a8a" font-family="Arial, sans-serif">Practise Aufbau, Hund's rule and Pauli exclusion together</text><circle cx="250.0" cy="866.0" r="2.8" fill="#2563eb"/><text x="260.0" y="870.0" font-size="12.3" fill="#1e3a8a" font-family="Arial, sans-serif">Model s and p orbital shapes (physical or diagram models)</text><circle cx="250.0" cy="890.0" r="2.8" fill="#2563eb"/><text x="260.0" y="894.0" font-size="12.3" fill="#1e3a8a" font-family="Arial, sans-serif">Write full &amp; condensed (noble-gas core) configurations</text><path d="M 600.0 1010.0 C 650.0 1010.0, 650.0 630.0, 700.0 630.0" fill="none" stroke="#2563eb" stroke-width="3" stroke-linecap="round" opacity="0.55"/><rect x="260.0" y="986.0" width="340.0" height="48.0" rx="10" ry="10" fill="#2563eb"/><text x="430" y="1006" text-anchor="middle" font-size="15" font-weight="700" fill="#ffffff" font-family="Arial, sans-serif">DETERMINING ATOMIC/MOLAR MASS</text><text x="430" y="1025" text-anchor="middle" font-size="11.5" font-weight="500" fill="#ffffff" opacity="0.85" font-family="Arial, sans-serif">Practical</text><rect x="230.0" y="1048.0" width="400.0" height="126.0" rx="10" ry="10" fill="#eff6ff" stroke="#93c5fd" stroke-width="1.5"/><circle cx="250.0" cy="1073.0" r="2.8" fill="#2563eb"/><text x="260.0" y="1077.0" font-size="12.3" fill="#1e3a8a" font-family="Arial, sans-serif">React a known mass of metal, measure gas/product produced</text><circle cx="250.0" cy="1097.0" r="2.8" fill="#2563eb"/><text x="260.0" y="1101.0" font-size="12.3" fill="#1e3a8a" font-family="Arial, sans-serif">Use stoichiometry to calculate molar mass experimentally</text><circle cx="250.0" cy="1121.0" r="2.8" fill="#2563eb"/><text x="260.0" y="1125.0" font-size="12.3" fill="#1e3a8a" font-family="Arial, sans-serif">Compare to the periodic table's relative atomic mass</text><circle cx="250.0" cy="1145.0" r="2.8" fill="#2563eb"/><text x="260.0" y="1149.0" font-size="12.3" fill="#1e3a8a" font-family="Arial, sans-serif">Discuss sources of experimental error</text><path d="M 1000.0 630.0 C 1050.0 630.0, 1050.0 245.0, 1100.0 245.0" fill="none" stroke="#7c3aed" stroke-width="3" stroke-linecap="round" opacity="0.55"/><rect x="1100.0" y="221.0" width="340.0" height="48.0" rx="10" ry="10" fill="#7c3aed"/><text x="1270" y="241" text-anchor="middle" font-size="15" font-weight="700" fill="#ffffff" font-family="Arial, sans-serif">MASS SPECTRA INTERPRETATION</text><text x="1270" y="260" text-anchor="middle" font-size="11.5" font-weight="500" fill="#ffffff" opacity="0.85" font-family="Arial, sans-serif">Data-response . HL</text><rect x="1070.0" y="283.0" width="400.0" height="126.0" rx="10" ry="10" fill="#f5f3ff" stroke="#c4b5fd" stroke-width="1.5"/><circle cx="1090.0" cy="308.0" r="2.8" fill="#7c3aed"/><text x="1100.0" y="312.0" font-size="12.3" fill="#4c1d95" font-family="Arial, sans-serif">Given a mass spectrum printout, identify each isotope peak</text><circle cx="1090.0" cy="332.0" r="2.8" fill="#7c3aed"/><text x="1100.0" y="336.0" font-size="12.3" fill="#4c1d95" font-family="Arial, sans-serif">Read m/z values and relative abundances (peak heights)</text><circle cx="1090.0" cy="356.0" r="2.8" fill="#7c3aed"/><text x="1100.0" y="360.0" font-size="12.3" fill="#4c1d95" font-family="Arial, sans-serif">Calculate the relative atomic mass from the spectrum</text><circle cx="1090.0" cy="380.0" r="2.8" fill="#7c3aed"/><text x="1100.0" y="384.0" font-size="12.3" fill="#4c1d95" font-family="Arial, sans-serif">Compare results across different elements' spectra</text><path d="M 1000.0 630.0 C 1050.0 630.0, 1050.0 500.0, 1100.0 500.0" fill="none" stroke="#7c3aed" stroke-width="3" stroke-linecap="round" opacity="0.55"/><rect x="1100.0" y="476.0" width="340.0" height="48.0" rx="10" ry="10" fill="#7c3aed"/><text x="1270" y="496" text-anchor="middle" font-size="15" font-weight="700" fill="#ffffff" font-family="Arial, sans-serif">IONIZATION ENERGY FROM SPECTRAL DATA</text><text x="1270" y="515" text-anchor="middle" font-size="11.5" font-weight="500" fill="#ffffff" opacity="0.85" font-family="Arial, sans-serif">HL</text><rect x="1070.0" y="538.0" width="400.0" height="126.0" rx="10" ry="10" fill="#f5f3ff" stroke="#c4b5fd" stroke-width="1.5"/><circle cx="1090.0" cy="563.0" r="2.8" fill="#7c3aed"/><text x="1100.0" y="567.0" font-size="12.3" fill="#4c1d95" font-family="Arial, sans-serif">Given hydrogen emission-spectrum convergence data</text><circle cx="1090.0" cy="587.0" r="2.8" fill="#7c3aed"/><text x="1100.0" y="591.0" font-size="12.3" fill="#4c1d95" font-family="Arial, sans-serif">Calculate frequency/wavelength at the convergence limit</text><circle cx="1090.0" cy="611.0" r="2.8" fill="#7c3aed"/><text x="1100.0" y="615.0" font-size="12.3" fill="#4c1d95" font-family="Arial, sans-serif">Apply E=hf and c=lambda*f to find the 1st ionization energy</text><circle cx="1090.0" cy="635.0" r="2.8" fill="#7c3aed"/><text x="1100.0" y="639.0" font-size="12.3" fill="#4c1d95" font-family="Arial, sans-serif">Compare calculated IE to the accepted data-booklet value</text><path d="M 1000.0 630.0 C 1050.0 630.0, 1050.0 755.0, 1100.0 755.0" fill="none" stroke="#7c3aed" stroke-width="3" stroke-linecap="round" opacity="0.55"/><rect x="1100.0" y="731.0" width="340.0" height="48.0" rx="10" ry="10" fill="#7c3aed"/><text x="1270" y="751" text-anchor="middle" font-size="15" font-weight="700" fill="#ffffff" font-family="Arial, sans-serif">SUCCESSIVE IE GRAPHING &amp; IA IDEAS</text><text x="1270" y="770" text-anchor="middle" font-size="11.5" font-weight="500" fill="#ffffff" opacity="0.85" font-family="Arial, sans-serif">HL</text><rect x="1070.0" y="793.0" width="400.0" height="126.0" rx="10" ry="10" fill="#f5f3ff" stroke="#c4b5fd" stroke-width="1.5"/><circle cx="1090.0" cy="818.0" r="2.8" fill="#7c3aed"/><text x="1100.0" y="822.0" font-size="12.3" fill="#4c1d95" font-family="Arial, sans-serif">Plot log(IE) vs number of electrons removed for an element</text><circle cx="1090.0" cy="842.0" r="2.8" fill="#7c3aed"/><text x="1100.0" y="846.0" font-size="12.3" fill="#4c1d95" font-family="Arial, sans-serif">Identify jumps that reveal main energy levels/sub-levels</text><circle cx="1090.0" cy="866.0" r="2.8" fill="#7c3aed"/><text x="1100.0" y="870.0" font-size="12.3" fill="#4c1d95" font-family="Arial, sans-serif">Deduce an unknown element's group from the graph shape</text><circle cx="1090.0" cy="890.0" r="2.8" fill="#7c3aed"/><text x="1100.0" y="894.0" font-size="12.3" fill="#4c1d95" font-family="Arial, sans-serif">IA idea: compare IE patterns across a period or down a group</text><path d="M 1000.0 630.0 C 1050.0 630.0, 1050.0 1010.0, 1100.0 1010.0" fill="none" stroke="#0d9488" stroke-width="3" stroke-linecap="round" opacity="0.55"/><rect x="1100.0" y="986.0" width="340.0" height="48.0" rx="10" ry="10" fill="#0d9488"/><text x="1270" y="1006" text-anchor="middle" font-size="15" font-weight="700" fill="#ffffff" font-family="Arial, sans-serif">SIMULATIONS &amp; VIRTUAL LABS</text><text x="1270" y="1025" text-anchor="middle" font-size="11.5" font-weight="500" fill="#ffffff" opacity="0.85" font-family="Arial, sans-serif"></text><rect x="1070.0" y="1048.0" width="400.0" height="174.0" rx="10" ry="10" fill="#f0fdfa" stroke="#5eead4" stroke-width="1.5"/><circle cx="1090.0" cy="1073.0" r="2.8" fill="#0d9488"/><text x="1100.0" y="1077.0" font-size="12.3" fill="#134e4a" font-family="Arial, sans-serif">PhET 'Models of the Hydrogen Atom' - Bohr transitions &amp; spectral lines</text><circle cx="1090.0" cy="1097.0" r="2.8" fill="#0d9488"/><text x="1100.0" y="1101.0" font-size="12.3" fill="#134e4a" font-family="Arial, sans-serif">PhET 'Build an Atom' - build isotopes/ions, see notation update live</text><circle cx="1090.0" cy="1121.0" r="2.8" fill="#0d9488"/><text x="1100.0" y="1125.0" font-size="12.3" fill="#134e4a" font-family="Arial, sans-serif">PhET 'Isotopes and Atomic Mass' - mix isotopes, find average Ar</text><circle cx="1090.0" cy="1145.0" r="2.8" fill="#0d9488"/><text x="1100.0" y="1149.0" font-size="12.3" fill="#134e4a" font-family="Arial, sans-serif">PhET 'Neon Lights &amp; Other Discharge Lamps' - compare gas spectra</text><circle cx="1090.0" cy="1169.0" r="2.8" fill="#0d9488"/><text x="1100.0" y="1173.0" font-size="12.3" fill="#134e4a" font-family="Arial, sans-serif">Orbitron - rotate 3D s, p, d, f orbital shapes</text><circle cx="1090.0" cy="1193.0" r="2.8" fill="#0d9488"/><text x="1100.0" y="1197.0" font-size="12.3" fill="#134e4a" font-family="Arial, sans-serif">ptable.com - click an element to graph its successive IEs</text><rect x="30.0" y="1250.0" width="16.0" height="16.0" rx="4" ry="4" fill="#2563eb"/><text x="54" y="1263" font-size="13" fill="#1e293b" font-family="Arial, sans-serif">Core practicals &amp; modelling (SL &amp; HL)</text><rect x="360.0" y="1250.0" width="16.0" height="16.0" rx="4" ry="4" fill="#7c3aed"/><text x="384" y="1263" font-size="13" fill="#1e293b" font-family="Arial, sans-serif">Spectral data analysis &amp; IA ideas (HL)</text><rect x="680.0" y="1250.0" width="16.0" height="16.0" rx="4" ry="4" fill="#0d9488"/><text x="704" y="1263" font-size="13" fill="#1e293b" font-family="Arial, sans-serif">Simulations</text><text x="1670" y="1263" text-anchor="end" font-size="11" fill="#94a3b8" font-family="Arial, sans-serif">Standard school-lab, data-response &amp; simulation resources compiled for IB Chemistry</text></svg>