<?xml version="1.0" encoding="UTF-8" standalone="no"?><svg viewBox="0 0 1760 1800" xmlns="http://www.w3.org/2000/svg" role="img"><title>IB Chemistry HL Organic Chemistry Mind Map</title><rect x="0" y="0" width="1760" height="1800" fill="#ffffff"/><text x="880.0" y="42" text-anchor="middle" font-size="26" font-weight="800" fill="#0f172a" font-family="Arial, sans-serif">IB Chemistry HL — Organic Chemistry</text><text x="880.0" y="66" text-anchor="middle" font-size="14" fill="#475569" font-family="Arial, sans-serif">Structure 3.2 Functional groups &amp; classification; Reactivity 3.3-3.4 Electron sharing / electron-pair sharing reactions</text><rect x="730.0" y="950.0" width="300.0" height="100.0" rx="16" ry="16" fill="#0f172a"/><text x="880" y="990" text-anchor="middle" font-size="18" font-weight="800" fill="#ffffff" font-family="Arial, sans-serif">ORGANIC</text><text x="880" y="1012" text-anchor="middle" font-size="18" font-weight="800" fill="#ffffff" font-family="Arial, sans-serif">CHEMISTRY</text><text x="880" y="1034" text-anchor="middle" font-size="11.5" fill="#cbd5e1" font-family="Arial, sans-serif">HL IB Chemistry</text><path d="M 640.0 190.0 C 685.0 190.0, 685.0 1000.0, 730.0 1000.0" fill="none" stroke="#2563eb" stroke-width="3" stroke-linecap="round" opacity="0.55"/><rect x="280.0" y="166.0" width="360.0" height="48.0" rx="10" ry="10" fill="#2563eb"/><text x="460" y="186" text-anchor="middle" font-size="14.5" font-weight="700" fill="#ffffff" font-family="Arial, sans-serif">FORMULAS &amp; MOLECULAR MODELS</text><text x="460" y="205" text-anchor="middle" font-size="11.5" font-weight="500" fill="#ffffff" opacity="0.85" font-family="Arial, sans-serif">Structure 3.2.1</text><rect x="240.0" y="228.0" width="440.0" height="116.0" rx="10" ry="10" fill="#eff6ff" stroke="#93c5fd" stroke-width="1.5"/><circle cx="260.0" cy="251.0" r="2.6" fill="#2563eb"/><text x="270.0" y="255.0" font-size="11.8" fill="#1e3a8a" font-family="Arial, sans-serif">Empirical, molecular, structural (full &amp; condensed) formulas</text><circle cx="260.0" cy="273.0" r="2.6" fill="#2563eb"/><text x="270.0" y="277.0" font-size="11.8" fill="#1e3a8a" font-family="Arial, sans-serif">Skeletal formulas and stereochemical formulas</text><circle cx="260.0" cy="295.0" r="2.6" fill="#2563eb"/><text x="270.0" y="299.0" font-size="11.8" fill="#1e3a8a" font-family="Arial, sans-serif">Interconvert molecular, skeletal &amp; structural formulas</text><circle cx="260.0" cy="317.0" r="2.6" fill="#2563eb"/><text x="270.0" y="321.0" font-size="11.8" fill="#1e3a8a" font-family="Arial, sans-serif">Construct 3D models (real or virtual) of organic molecules</text><path d="M 640.0 398.0 C 685.0 398.0, 685.0 1000.0, 730.0 1000.0" fill="none" stroke="#2563eb" stroke-width="3" stroke-linecap="round" opacity="0.55"/><rect x="280.0" y="374.0" width="360.0" height="48.0" rx="10" ry="10" fill="#2563eb"/><text x="460" y="394" text-anchor="middle" font-size="14.5" font-weight="700" fill="#ffffff" font-family="Arial, sans-serif">FUNCTIONAL GROUPS</text><text x="460" y="413" text-anchor="middle" font-size="11.5" font-weight="500" fill="#ffffff" opacity="0.85" font-family="Arial, sans-serif">Structure 3.2.2</text><rect x="240.0" y="436.0" width="440.0" height="116.0" rx="10" ry="10" fill="#eff6ff" stroke="#93c5fd" stroke-width="1.5"/><circle cx="260.0" cy="459.0" r="2.6" fill="#2563eb"/><text x="270.0" y="463.0" font-size="11.8" fill="#1e3a8a" font-family="Arial, sans-serif">Halogeno, hydroxyl, carbonyl, carboxyl, alkoxy groups</text><circle cx="260.0" cy="481.0" r="2.6" fill="#2563eb"/><text x="270.0" y="485.0" font-size="11.8" fill="#1e3a8a" font-family="Arial, sans-serif">Amino, amido, ester and phenyl groups</text><circle cx="260.0" cy="503.0" r="2.6" fill="#2563eb"/><text x="270.0" y="507.0" font-size="11.8" fill="#1e3a8a" font-family="Arial, sans-serif">Functional group gives characteristic physical/chemical properties</text><circle cx="260.0" cy="525.0" r="2.6" fill="#2563eb"/><text x="270.0" y="529.0" font-size="11.8" fill="#1e3a8a" font-family="Arial, sans-serif">Classify compounds as saturated or unsaturated</text><path d="M 640.0 606.0 C 685.0 606.0, 685.0 1000.0, 730.0 1000.0" fill="none" stroke="#2563eb" stroke-width="3" stroke-linecap="round" opacity="0.55"/><rect x="280.0" y="582.0" width="360.0" height="48.0" rx="10" ry="10" fill="#2563eb"/><text x="460" y="602" text-anchor="middle" font-size="14.5" font-weight="700" fill="#ffffff" font-family="Arial, sans-serif">HOMOLOGOUS SERIES &amp; TRENDS</text><text x="460" y="621" text-anchor="middle" font-size="11.5" font-weight="500" fill="#ffffff" opacity="0.85" font-family="Arial, sans-serif">Structure 3.2.3-3.2.4</text><rect x="240.0" y="644.0" width="440.0" height="116.0" rx="10" ry="10" fill="#eff6ff" stroke="#93c5fd" stroke-width="1.5"/><circle cx="260.0" cy="667.0" r="2.6" fill="#2563eb"/><text x="270.0" y="671.0" font-size="11.8" fill="#1e3a8a" font-family="Arial, sans-serif">Alkanes, alkenes, alkynes, halogenoalkanes, alcohols</text><circle cx="260.0" cy="689.0" r="2.6" fill="#2563eb"/><text x="270.0" y="693.0" font-size="11.8" fill="#1e3a8a" font-family="Arial, sans-serif">Aldehydes, ketones, carboxylic acids, ethers</text><circle cx="260.0" cy="711.0" r="2.6" fill="#2563eb"/><text x="270.0" y="715.0" font-size="11.8" fill="#1e3a8a" font-family="Arial, sans-serif">Amines, amides and esters as separate series</text><circle cx="260.0" cy="733.0" r="2.6" fill="#2563eb"/><text x="270.0" y="737.0" font-size="11.8" fill="#1e3a8a" font-family="Arial, sans-serif">Explain mp/bp trends: chain length, branching, IMF strength</text><path d="M 640.0 814.0 C 685.0 814.0, 685.0 1000.0, 730.0 1000.0" fill="none" stroke="#2563eb" stroke-width="3" stroke-linecap="round" opacity="0.55"/><rect x="280.0" y="790.0" width="360.0" height="48.0" rx="10" ry="10" fill="#2563eb"/><text x="460" y="810" text-anchor="middle" font-size="14.5" font-weight="700" fill="#ffffff" font-family="Arial, sans-serif">IUPAC NOMENCLATURE</text><text x="460" y="829" text-anchor="middle" font-size="11.5" font-weight="500" fill="#ffffff" opacity="0.85" font-family="Arial, sans-serif">Structure 3.2.5</text><rect x="240.0" y="852.0" width="440.0" height="116.0" rx="10" ry="10" fill="#eff6ff" stroke="#93c5fd" stroke-width="1.5"/><circle cx="260.0" cy="875.0" r="2.6" fill="#2563eb"/><text x="270.0" y="879.0" font-size="11.8" fill="#1e3a8a" font-family="Arial, sans-serif">Systematic naming rules of IUPAC for organic compounds</text><circle cx="260.0" cy="897.0" r="2.6" fill="#2563eb"/><text x="270.0" y="901.0" font-size="11.8" fill="#1e3a8a" font-family="Arial, sans-serif">Name saturated/mono-unsaturated chains up to 6 carbons</text><circle cx="260.0" cy="919.0" r="2.6" fill="#2563eb"/><text x="270.0" y="923.0" font-size="11.8" fill="#1e3a8a" font-family="Arial, sans-serif">One functional group per name: halogeno, hydroxyl, carbonyl, carboxyl</text><circle cx="260.0" cy="941.0" r="2.6" fill="#2563eb"/><text x="270.0" y="945.0" font-size="11.8" fill="#1e3a8a" font-family="Arial, sans-serif">Include straight-chain and branched-chain isomers</text><path d="M 640.0 1022.0 C 685.0 1022.0, 685.0 1000.0, 730.0 1000.0" fill="none" stroke="#2563eb" stroke-width="3" stroke-linecap="round" opacity="0.55"/><rect x="280.0" y="998.0" width="360.0" height="48.0" rx="10" ry="10" fill="#2563eb"/><text x="460" y="1018" text-anchor="middle" font-size="14.5" font-weight="700" fill="#ffffff" font-family="Arial, sans-serif">STRUCTURAL ISOMERISM</text><text x="460" y="1037" text-anchor="middle" font-size="11.5" font-weight="500" fill="#ffffff" opacity="0.85" font-family="Arial, sans-serif">Structure 3.2.6</text><rect x="240.0" y="1060.0" width="440.0" height="116.0" rx="10" ry="10" fill="#eff6ff" stroke="#93c5fd" stroke-width="1.5"/><circle cx="260.0" cy="1083.0" r="2.6" fill="#2563eb"/><text x="270.0" y="1087.0" font-size="11.8" fill="#1e3a8a" font-family="Arial, sans-serif">Same molecular formula, different connectivity</text><circle cx="260.0" cy="1105.0" r="2.6" fill="#2563eb"/><text x="270.0" y="1109.0" font-size="11.8" fill="#1e3a8a" font-family="Arial, sans-serif">Chain, position and functional-group isomers</text><circle cx="260.0" cy="1127.0" r="2.6" fill="#2563eb"/><text x="270.0" y="1131.0" font-size="11.8" fill="#1e3a8a" font-family="Arial, sans-serif">Classify primary, secondary &amp; tertiary alcohols</text><circle cx="260.0" cy="1149.0" r="2.6" fill="#2563eb"/><text x="270.0" y="1153.0" font-size="11.8" fill="#1e3a8a" font-family="Arial, sans-serif">Classify primary, secondary &amp; tertiary halogenoalkanes and amines</text><path d="M 640.0 1230.0 C 685.0 1230.0, 685.0 1000.0, 730.0 1000.0" fill="none" stroke="#2563eb" stroke-width="3" stroke-linecap="round" opacity="0.55"/><rect x="280.0" y="1206.0" width="360.0" height="48.0" rx="10" ry="10" fill="#2563eb"/><text x="460" y="1226" text-anchor="middle" font-size="14.5" font-weight="700" fill="#ffffff" font-family="Arial, sans-serif">RADICAL SUBSTITUTION REACTIONS</text><text x="460" y="1245" text-anchor="middle" font-size="11.5" font-weight="500" fill="#ffffff" opacity="0.85" font-family="Arial, sans-serif">Reactivity 3.3.1-3.3.3</text><rect x="240.0" y="1268.0" width="440.0" height="138.0" rx="10" ry="10" fill="#eff6ff" stroke="#93c5fd" stroke-width="1.5"/><circle cx="260.0" cy="1291.0" r="2.6" fill="#2563eb"/><text x="270.0" y="1295.0" font-size="11.8" fill="#1e3a8a" font-family="Arial, sans-serif">Radical = species with an unpaired electron; highly reactive</text><circle cx="260.0" cy="1313.0" r="2.6" fill="#2563eb"/><text x="270.0" y="1317.0" font-size="11.8" fill="#1e3a8a" font-family="Arial, sans-serif">Homolytic fission of halogens by UV light or heat (initiation)</text><circle cx="260.0" cy="1335.0" r="2.6" fill="#2563eb"/><text x="270.0" y="1339.0" font-size="11.8" fill="#1e3a8a" font-family="Arial, sans-serif">Propagation and termination steps of the chain reaction</text><circle cx="260.0" cy="1357.0" r="2.6" fill="#2563eb"/><text x="270.0" y="1361.0" font-size="11.8" fill="#1e3a8a" font-family="Arial, sans-serif">Free-radical substitution of alkanes by halogens; product mixtures</text><circle cx="260.0" cy="1379.0" r="2.6" fill="#2563eb"/><text x="270.0" y="1383.0" font-size="11.8" fill="#1e3a8a" font-family="Arial, sans-serif">Alkanes: kinetically stable (strong C-C/C-H, non-polar) bonds</text><path d="M 640.0 1460.0 C 685.0 1460.0, 685.0 1000.0, 730.0 1000.0" fill="none" stroke="#2563eb" stroke-width="3" stroke-linecap="round" opacity="0.55"/><rect x="280.0" y="1436.0" width="360.0" height="48.0" rx="10" ry="10" fill="#2563eb"/><text x="460" y="1456" text-anchor="middle" font-size="14.5" font-weight="700" fill="#ffffff" font-family="Arial, sans-serif">NUCLEOPHILES &amp; ELECTROPHILES (SL)</text><text x="460" y="1475" text-anchor="middle" font-size="11.5" font-weight="500" fill="#ffffff" opacity="0.85" font-family="Arial, sans-serif">Reactivity 3.4.1-3.4.5</text><rect x="240.0" y="1498.0" width="440.0" height="138.0" rx="10" ry="10" fill="#eff6ff" stroke="#93c5fd" stroke-width="1.5"/><circle cx="260.0" cy="1521.0" r="2.6" fill="#2563eb"/><text x="270.0" y="1525.0" font-size="11.8" fill="#1e3a8a" font-family="Arial, sans-serif">Nucleophile donates an electron pair to form a new bond</text><circle cx="260.0" cy="1543.0" r="2.6" fill="#2563eb"/><text x="270.0" y="1547.0" font-size="11.8" fill="#1e3a8a" font-family="Arial, sans-serif">Electrophile accepts an electron pair from its partner</text><circle cx="260.0" cy="1565.0" r="2.6" fill="#2563eb"/><text x="270.0" y="1569.0" font-size="11.8" fill="#1e3a8a" font-family="Arial, sans-serif">Heterolytic fission: both electrons stay with one fragment</text><circle cx="260.0" cy="1587.0" r="2.6" fill="#2563eb"/><text x="270.0" y="1591.0" font-size="11.8" fill="#1e3a8a" font-family="Arial, sans-serif">SN reactions of halogenoalkanes with nucleophiles (equations only)</text><circle cx="260.0" cy="1609.0" r="2.6" fill="#2563eb"/><text x="270.0" y="1613.0" font-size="11.8" fill="#1e3a8a" font-family="Arial, sans-serif">Electrophilic addition of alkenes with water, halogens, HX (equations only)</text><path d="M 1030.0 1000.0 C 1075.0 1000.0, 1075.0 230.0, 1120.0 230.0" fill="none" stroke="#7c3aed" stroke-width="3" stroke-linecap="round" opacity="0.55"/><rect x="1120.0" y="206.0" width="360.0" height="48.0" rx="10" ry="10" fill="#7c3aed"/><text x="1300" y="226" text-anchor="middle" font-size="14.5" font-weight="700" fill="#ffffff" font-family="Arial, sans-serif">STEREOISOMERISM</text><text x="1300" y="245" text-anchor="middle" font-size="11.5" font-weight="500" fill="#ffffff" opacity="0.85" font-family="Arial, sans-serif">Structure 3.2.7 (HL)</text><rect x="1080.0" y="268.0" width="440.0" height="138.0" rx="10" ry="10" fill="#f5f3ff" stroke="#c4b5fd" stroke-width="1.5"/><circle cx="1100.0" cy="291.0" r="2.6" fill="#7c3aed"/><text x="1110.0" y="295.0" font-size="11.8" fill="#4c1d95" font-family="Arial, sans-serif">Stereoisomers: same connectivity, different spatial arrangement</text><circle cx="1100.0" cy="313.0" r="2.6" fill="#7c3aed"/><text x="1110.0" y="317.0" font-size="11.8" fill="#4c1d95" font-family="Arial, sans-serif">Cis-trans isomerism in non-cyclic alkenes, C3/C4 cycloalkanes</text><circle cx="1100.0" cy="335.0" r="2.6" fill="#7c3aed"/><text x="1110.0" y="339.0" font-size="11.8" fill="#4c1d95" font-family="Arial, sans-serif">Chiral carbon: tetrahedral arrangement, wedge-dash formulas</text><circle cx="1100.0" cy="357.0" r="2.6" fill="#7c3aed"/><text x="1110.0" y="361.0" font-size="11.8" fill="#4c1d95" font-family="Arial, sans-serif">Enantiomers: non-superimposable mirror images (3D modelling)</text><circle cx="1100.0" cy="379.0" r="2.6" fill="#7c3aed"/><text x="1110.0" y="383.0" font-size="11.8" fill="#4c1d95" font-family="Arial, sans-serif">Optical activity, racemic mixtures, chiral environments</text><path d="M 1030.0 1000.0 C 1075.0 1000.0, 1075.0 460.0, 1120.0 460.0" fill="none" stroke="#7c3aed" stroke-width="3" stroke-linecap="round" opacity="0.55"/><rect x="1120.0" y="436.0" width="360.0" height="48.0" rx="10" ry="10" fill="#7c3aed"/><text x="1300" y="456" text-anchor="middle" font-size="14.5" font-weight="700" fill="#ffffff" font-family="Arial, sans-serif">STRUCTURAL ELUCIDATION: MS, IR, NMR</text><text x="1300" y="475" text-anchor="middle" font-size="11.5" font-weight="500" fill="#ffffff" opacity="0.85" font-family="Arial, sans-serif">Structure 3.2.8-3.2.12 (HL)</text><rect x="1080.0" y="498.0" width="440.0" height="160.0" rx="10" ry="10" fill="#f5f3ff" stroke="#c4b5fd" stroke-width="1.5"/><circle cx="1100.0" cy="521.0" r="2.6" fill="#7c3aed"/><text x="1110.0" y="525.0" font-size="11.8" fill="#4c1d95" font-family="Arial, sans-serif">Mass spectrometry: fragmentation patterns, molecular ion</text><circle cx="1100.0" cy="543.0" r="2.6" fill="#7c3aed"/><text x="1110.0" y="547.0" font-size="11.8" fill="#4c1d95" font-family="Arial, sans-serif">IR spectra: functional-group region, characteristic wavenumbers</text><circle cx="1100.0" cy="565.0" r="2.6" fill="#7c3aed"/><text x="1110.0" y="569.0" font-size="11.8" fill="#4c1d95" font-family="Arial, sans-serif">IR link: greenhouse gases and absorption of IR radiation</text><circle cx="1100.0" cy="587.0" r="2.6" fill="#7c3aed"/><text x="1110.0" y="591.0" font-size="11.8" fill="#4c1d95" font-family="Arial, sans-serif">1H NMR: chemical environments, chemical shift, integration</text><circle cx="1100.0" cy="609.0" r="2.6" fill="#7c3aed"/><text x="1110.0" y="613.0" font-size="11.8" fill="#4c1d95" font-family="Arial, sans-serif">Splitting patterns: singlet, doublet, triplet, quartet</text><circle cx="1100.0" cy="631.0" r="2.6" fill="#7c3aed"/><text x="1110.0" y="635.0" font-size="11.8" fill="#4c1d95" font-family="Arial, sans-serif">Combine multiple analytical techniques to solve a structure</text><path d="M 1030.0 1000.0 C 1075.0 1000.0, 1075.0 712.0, 1120.0 712.0" fill="none" stroke="#7c3aed" stroke-width="3" stroke-linecap="round" opacity="0.55"/><rect x="1120.0" y="688.0" width="360.0" height="48.0" rx="10" ry="10" fill="#7c3aed"/><text x="1300" y="708" text-anchor="middle" font-size="14.5" font-weight="700" fill="#ffffff" font-family="Arial, sans-serif">LEWIS ACIDS/BASES &amp; COMPLEX IONS</text><text x="1300" y="727" text-anchor="middle" font-size="11.5" font-weight="500" fill="#ffffff" opacity="0.85" font-family="Arial, sans-serif">Reactivity 3.4.6-3.4.8 (HL)</text><rect x="1080.0" y="750.0" width="440.0" height="138.0" rx="10" ry="10" fill="#f5f3ff" stroke="#c4b5fd" stroke-width="1.5"/><circle cx="1100.0" cy="773.0" r="2.6" fill="#7c3aed"/><text x="1110.0" y="777.0" font-size="11.8" fill="#4c1d95" font-family="Arial, sans-serif">Lewis acid = electron-pair acceptor; Lewis base = electron-pair donor</text><circle cx="1100.0" cy="795.0" r="2.6" fill="#7c3aed"/><text x="1110.0" y="799.0" font-size="11.8" fill="#4c1d95" font-family="Arial, sans-serif">Nucleophiles are Lewis bases; electrophiles are Lewis acids</text><circle cx="1100.0" cy="817.0" r="2.6" fill="#7c3aed"/><text x="1110.0" y="821.0" font-size="11.8" fill="#4c1d95" font-family="Arial, sans-serif">Coordination bond forms when a Lewis base reacts with a Lewis acid</text><circle cx="1100.0" cy="839.0" r="2.6" fill="#7c3aed"/><text x="1110.0" y="843.0" font-size="11.8" fill="#4c1d95" font-family="Arial, sans-serif">Ligands donate electron pairs to transition-metal cations</text><circle cx="1100.0" cy="861.0" r="2.6" fill="#7c3aed"/><text x="1110.0" y="865.0" font-size="11.8" fill="#4c1d95" font-family="Arial, sans-serif">Deduce charge on a complex ion from ligands present</text><path d="M 1030.0 1000.0 C 1075.0 1000.0, 1075.0 942.0, 1120.0 942.0" fill="none" stroke="#7c3aed" stroke-width="3" stroke-linecap="round" opacity="0.55"/><rect x="1120.0" y="918.0" width="360.0" height="48.0" rx="10" ry="10" fill="#7c3aed"/><text x="1300" y="938" text-anchor="middle" font-size="14.5" font-weight="700" fill="#ffffff" font-family="Arial, sans-serif">SN1 vs SN2 MECHANISMS</text><text x="1300" y="957" text-anchor="middle" font-size="11.5" font-weight="500" fill="#ffffff" opacity="0.85" font-family="Arial, sans-serif">Reactivity 3.4.9-3.4.10 (HL)</text><rect x="1080.0" y="980.0" width="440.0" height="138.0" rx="10" ry="10" fill="#f5f3ff" stroke="#c4b5fd" stroke-width="1.5"/><circle cx="1100.0" cy="1003.0" r="2.6" fill="#7c3aed"/><text x="1110.0" y="1007.0" font-size="11.8" fill="#4c1d95" font-family="Arial, sans-serif">SN2: concerted, one-step mechanism for primary halogenoalkanes</text><circle cx="1100.0" cy="1025.0" r="2.6" fill="#7c3aed"/><text x="1110.0" y="1029.0" font-size="11.8" fill="#4c1d95" font-family="Arial, sans-serif">SN1: two-step mechanism (carbocation) for tertiary halogenoalkanes</text><circle cx="1100.0" cy="1047.0" r="2.6" fill="#7c3aed"/><text x="1110.0" y="1051.0" font-size="11.8" fill="#4c1d95" font-family="Arial, sans-serif">Secondary halogenoalkanes: both SN1 and SN2 can occur</text><circle cx="1100.0" cy="1069.0" r="2.6" fill="#7c3aed"/><text x="1110.0" y="1073.0" font-size="11.8" fill="#4c1d95" font-family="Arial, sans-serif">SN2 is stereospecific (inversion of configuration)</text><circle cx="1100.0" cy="1091.0" r="2.6" fill="#7c3aed"/><text x="1110.0" y="1095.0" font-size="11.8" fill="#4c1d95" font-family="Arial, sans-serif">Rate depends on leaving-group identity: RCl vs RBr vs RI</text><path d="M 1030.0 1000.0 C 1075.0 1000.0, 1075.0 1172.0, 1120.0 1172.0" fill="none" stroke="#7c3aed" stroke-width="3" stroke-linecap="round" opacity="0.55"/><rect x="1120.0" y="1148.0" width="360.0" height="48.0" rx="10" ry="10" fill="#7c3aed"/><text x="1300" y="1168" text-anchor="middle" font-size="14.5" font-weight="700" fill="#ffffff" font-family="Arial, sans-serif">ELECTROPHILIC ADDITION MECHANISMS</text><text x="1300" y="1187" text-anchor="middle" font-size="11.5" font-weight="500" fill="#ffffff" opacity="0.85" font-family="Arial, sans-serif">Reactivity 3.4.11-3.4.12 (HL)</text><rect x="1080.0" y="1210.0" width="440.0" height="116.0" rx="10" ry="10" fill="#f5f3ff" stroke="#c4b5fd" stroke-width="1.5"/><circle cx="1100.0" cy="1233.0" r="2.6" fill="#7c3aed"/><text x="1110.0" y="1237.0" font-size="11.8" fill="#4c1d95" font-family="Arial, sans-serif">Alkenes: high electron density of C=C attracts electrophiles</text><circle cx="1100.0" cy="1255.0" r="2.6" fill="#7c3aed"/><text x="1110.0" y="1259.0" font-size="11.8" fill="#4c1d95" font-family="Arial, sans-serif">Full curly-arrow mechanism with halogens, water, hydrogen halides</text><circle cx="1100.0" cy="1277.0" r="2.6" fill="#7c3aed"/><text x="1110.0" y="1281.0" font-size="11.8" fill="#4c1d95" font-family="Arial, sans-serif">Relative stability of carbocation intermediates</text><circle cx="1100.0" cy="1299.0" r="2.6" fill="#7c3aed"/><text x="1110.0" y="1303.0" font-size="11.8" fill="#4c1d95" font-family="Arial, sans-serif">Markovnikov's rule predicts the major product</text><path d="M 1030.0 1000.0 C 1075.0 1000.0, 1075.0 1380.0, 1120.0 1380.0" fill="none" stroke="#7c3aed" stroke-width="3" stroke-linecap="round" opacity="0.55"/><rect x="1120.0" y="1356.0" width="360.0" height="48.0" rx="10" ry="10" fill="#7c3aed"/><text x="1300" y="1376" text-anchor="middle" font-size="14.5" font-weight="700" fill="#ffffff" font-family="Arial, sans-serif">ELECTROPHILIC SUBSTITUTION OF BENZENE</text><text x="1300" y="1395" text-anchor="middle" font-size="11.5" font-weight="500" fill="#ffffff" opacity="0.85" font-family="Arial, sans-serif">Reactivity 3.4.13 (HL)</text><rect x="1080.0" y="1418.0" width="440.0" height="116.0" rx="10" ry="10" fill="#f5f3ff" stroke="#c4b5fd" stroke-width="1.5"/><circle cx="1100.0" cy="1441.0" r="2.6" fill="#7c3aed"/><text x="1110.0" y="1445.0" font-size="11.8" fill="#4c1d95" font-family="Arial, sans-serif">Benzene reacts with charged electrophiles, E+</text><circle cx="1100.0" cy="1463.0" r="2.6" fill="#7c3aed"/><text x="1110.0" y="1467.0" font-size="11.8" fill="#4c1d95" font-family="Arial, sans-serif">Delocalized ring resists addition; favours substitution</text><circle cx="1100.0" cy="1485.0" r="2.6" fill="#7c3aed"/><text x="1110.0" y="1489.0" font-size="11.8" fill="#4c1d95" font-family="Arial, sans-serif">Mechanism: electrophile attack, arenium intermediate, H+ loss</text><circle cx="1100.0" cy="1507.0" r="2.6" fill="#7c3aed"/><text x="1110.0" y="1511.0" font-size="11.8" fill="#4c1d95" font-family="Arial, sans-serif">Example: nitration of benzene using HNO3/H2SO4</text><rect x="30.0" y="1746.0" width="16.0" height="16.0" rx="4" ry="4" fill="#2563eb"/><text x="54" y="1759" font-size="13" fill="#1e293b" font-family="Arial, sans-serif">Core content (SL &amp; HL)</text><rect x="320.0" y="1746.0" width="16.0" height="16.0" rx="4" ry="4" fill="#7c3aed"/><text x="344" y="1759" font-size="13" fill="#1e293b" font-family="Arial, sans-serif">HL-only content (AHL)</text><text x="1730" y="1759" text-anchor="end" font-size="11" fill="#94a3b8" font-family="Arial, sans-serif">IB Chemistry 2025 syllabus — Structure 3.2 &amp; Reactivity 3.3/3.4</text></svg>