<?xml version="1.0" encoding="UTF-8" standalone="no"?><svg viewBox="0 0 1760 1080" xmlns="http://www.w3.org/2000/svg" role="img"><title>IB Chemistry HL Spectroscopy Practical Labs Mind Map</title><rect x="0" y="0" width="1760" height="1080" fill="#ffffff"/><text x="880.0" y="42" text-anchor="middle" font-size="26" font-weight="800" fill="#0f172a" font-family="Arial, sans-serif">IB Chemistry HL — Spectroscopy Labs</text><text x="880.0" y="66" text-anchor="middle" font-size="14" fill="#475569" font-family="Arial, sans-serif">Data-based practical &amp; simulation work for Structure 3.2.8-3.2.12 "Structural determination" (HL-only)</text><rect x="730.0" y="570.0" width="300.0" height="100.0" rx="16" ry="16" fill="#0f172a"/><text x="880" y="610" text-anchor="middle" font-size="16" font-weight="800" fill="#ffffff" font-family="Arial, sans-serif">SPECTROSCOPY</text><text x="880" y="632" text-anchor="middle" font-size="14" font-weight="800" fill="#ffffff" font-family="Arial, sans-serif">LABS</text><text x="880" y="654" text-anchor="middle" font-size="11.5" fill="#cbd5e1" font-family="Arial, sans-serif">Practical work — HL Chemistry</text><path d="M 660.0 230.0 C 695.0 230.0, 695.0 620.0, 730.0 620.0" fill="none" stroke="#7c3aed" stroke-width="3" stroke-linecap="round" opacity="0.55"/><rect x="280.0" y="206.0" width="380.0" height="48.0" rx="10" ry="10" fill="#7c3aed"/><text x="470" y="226" text-anchor="middle" font-size="14.5" font-weight="700" fill="#ffffff" font-family="Arial, sans-serif">INTERPRETING REAL IR SPECTRA</text><text x="470" y="245" text-anchor="middle" font-size="11.5" font-weight="500" fill="#ffffff" opacity="0.85" font-family="Arial, sans-serif">Data-based practical</text><rect x="240.0" y="268.0" width="460.0" height="116.0" rx="10" ry="10" fill="#f5f3ff" stroke="#c4b5fd" stroke-width="1.5"/><circle cx="260.0" cy="291.0" r="2.6" fill="#7c3aed"/><text x="270.0" y="295.0" font-size="11.8" fill="#4c1d95" font-family="Arial, sans-serif">Obtain printed/real IR spectra of known compounds</text><circle cx="260.0" cy="313.0" r="2.6" fill="#7c3aed"/><text x="270.0" y="317.0" font-size="11.8" fill="#4c1d95" font-family="Arial, sans-serif">Identify functional-group peaks using the data-booklet table</text><circle cx="260.0" cy="335.0" r="2.6" fill="#7c3aed"/><text x="270.0" y="339.0" font-size="11.8" fill="#4c1d95" font-family="Arial, sans-serif">Distinguish broad O-H/N-H peaks from sharp C=O, C-H absorptions</text><circle cx="260.0" cy="357.0" r="2.6" fill="#7c3aed"/><text x="270.0" y="361.0" font-size="11.8" fill="#4c1d95" font-family="Arial, sans-serif">Compare spectra of related compounds to see functional-group shifts</text><path d="M 660.0 438.0 C 695.0 438.0, 695.0 620.0, 730.0 620.0" fill="none" stroke="#7c3aed" stroke-width="3" stroke-linecap="round" opacity="0.55"/><rect x="280.0" y="414.0" width="380.0" height="48.0" rx="10" ry="10" fill="#7c3aed"/><text x="470" y="434" text-anchor="middle" font-size="14.5" font-weight="700" fill="#ffffff" font-family="Arial, sans-serif">INTERPRETING REAL MASS SPECTRA</text><text x="470" y="453" text-anchor="middle" font-size="11.5" font-weight="500" fill="#ffffff" opacity="0.85" font-family="Arial, sans-serif">Data-based practical</text><rect x="240.0" y="476.0" width="460.0" height="116.0" rx="10" ry="10" fill="#f5f3ff" stroke="#c4b5fd" stroke-width="1.5"/><circle cx="260.0" cy="499.0" r="2.6" fill="#7c3aed"/><text x="270.0" y="503.0" font-size="11.8" fill="#4c1d95" font-family="Arial, sans-serif">Identify the molecular ion peak (M+) and read off Mr</text><circle cx="260.0" cy="521.0" r="2.6" fill="#7c3aed"/><text x="270.0" y="525.0" font-size="11.8" fill="#4c1d95" font-family="Arial, sans-serif">Identify common fragment losses using the data-booklet table</text><circle cx="260.0" cy="543.0" r="2.6" fill="#7c3aed"/><text x="270.0" y="547.0" font-size="11.8" fill="#4c1d95" font-family="Arial, sans-serif">Match a fragmentation pattern to a proposed structure</text><circle cx="260.0" cy="565.0" r="2.6" fill="#7c3aed"/><text x="270.0" y="569.0" font-size="11.8" fill="#4c1d95" font-family="Arial, sans-serif">Cross-check MS-derived Mr against other structural evidence</text><path d="M 660.0 646.0 C 695.0 646.0, 695.0 620.0, 730.0 620.0" fill="none" stroke="#7c3aed" stroke-width="3" stroke-linecap="round" opacity="0.55"/><rect x="280.0" y="622.0" width="380.0" height="48.0" rx="10" ry="10" fill="#7c3aed"/><text x="470" y="642" text-anchor="middle" font-size="14.5" font-weight="700" fill="#ffffff" font-family="Arial, sans-serif">INTERPRETING REAL 1H NMR SPECTRA</text><text x="470" y="661" text-anchor="middle" font-size="11.5" font-weight="500" fill="#ffffff" opacity="0.85" font-family="Arial, sans-serif">Data-based practical</text><rect x="240.0" y="684.0" width="460.0" height="116.0" rx="10" ry="10" fill="#f5f3ff" stroke="#c4b5fd" stroke-width="1.5"/><circle cx="260.0" cy="707.0" r="2.6" fill="#7c3aed"/><text x="270.0" y="711.0" font-size="11.8" fill="#4c1d95" font-family="Arial, sans-serif">Count signals to find the number of distinct H environments</text><circle cx="260.0" cy="729.0" r="2.6" fill="#7c3aed"/><text x="270.0" y="733.0" font-size="11.8" fill="#4c1d95" font-family="Arial, sans-serif">Use integration ratios to find relative numbers of H atoms</text><circle cx="260.0" cy="751.0" r="2.6" fill="#7c3aed"/><text x="270.0" y="755.0" font-size="11.8" fill="#4c1d95" font-family="Arial, sans-serif">Apply the n+1 splitting rule to confirm neighbouring H atoms</text><circle cx="260.0" cy="773.0" r="2.6" fill="#7c3aed"/><text x="270.0" y="777.0" font-size="11.8" fill="#4c1d95" font-family="Arial, sans-serif">Assemble a full structure from shift, integration and splitting</text><path d="M 1030.0 620.0 C 1065.0 620.0, 1065.0 190.0, 1100.0 190.0" fill="none" stroke="#7c3aed" stroke-width="3" stroke-linecap="round" opacity="0.55"/><rect x="1100.0" y="166.0" width="380.0" height="48.0" rx="10" ry="10" fill="#7c3aed"/><text x="1290" y="186" text-anchor="middle" font-size="14.5" font-weight="700" fill="#ffffff" font-family="Arial, sans-serif">UNKNOWN COMPOUND IDENTIFICATION WORKSHOP</text><text x="1290" y="205" text-anchor="middle" font-size="11.5" font-weight="500" fill="#ffffff" opacity="0.85" font-family="Arial, sans-serif">Practical</text><rect x="1060.0" y="228.0" width="460.0" height="116.0" rx="10" ry="10" fill="#f5f3ff" stroke="#c4b5fd" stroke-width="1.5"/><circle cx="1080.0" cy="251.0" r="2.6" fill="#7c3aed"/><text x="1090.0" y="255.0" font-size="11.8" fill="#4c1d95" font-family="Arial, sans-serif">Work through paired MS + IR + 1H NMR data sets for unknowns</text><circle cx="1080.0" cy="273.0" r="2.6" fill="#7c3aed"/><text x="1090.0" y="277.0" font-size="11.8" fill="#4c1d95" font-family="Arial, sans-serif">Apply a systematic elimination approach to narrow down structures</text><circle cx="1080.0" cy="295.0" r="2.6" fill="#7c3aed"/><text x="1090.0" y="299.0" font-size="11.8" fill="#4c1d95" font-family="Arial, sans-serif">Justify the final proposed structure using all three data sets</text><circle cx="1080.0" cy="317.0" r="2.6" fill="#7c3aed"/><text x="1090.0" y="321.0" font-size="11.8" fill="#4c1d95" font-family="Arial, sans-serif">Peer-check and discuss alternative structures that also fit the data</text><path d="M 1030.0 620.0 C 1065.0 620.0, 1065.0 398.0, 1100.0 398.0" fill="none" stroke="#7c3aed" stroke-width="3" stroke-linecap="round" opacity="0.55"/><rect x="1100.0" y="374.0" width="380.0" height="48.0" rx="10" ry="10" fill="#7c3aed"/><text x="1290" y="394" text-anchor="middle" font-size="14.5" font-weight="700" fill="#ffffff" font-family="Arial, sans-serif">SPECTRAL DATABASE RESEARCH</text><text x="1290" y="413" text-anchor="middle" font-size="11.5" font-weight="500" fill="#ffffff" opacity="0.85" font-family="Arial, sans-serif">IA research skill</text><rect x="1060.0" y="436.0" width="460.0" height="116.0" rx="10" ry="10" fill="#f5f3ff" stroke="#c4b5fd" stroke-width="1.5"/><circle cx="1080.0" cy="459.0" r="2.6" fill="#7c3aed"/><text x="1090.0" y="463.0" font-size="11.8" fill="#4c1d95" font-family="Arial, sans-serif">Use SDBS or NIST WebBook to find real spectra of known compounds</text><circle cx="1080.0" cy="481.0" r="2.6" fill="#7c3aed"/><text x="1090.0" y="485.0" font-size="11.8" fill="#4c1d95" font-family="Arial, sans-serif">Compare a predicted spectrum against an experimental one</text><circle cx="1080.0" cy="503.0" r="2.6" fill="#7c3aed"/><text x="1090.0" y="507.0" font-size="11.8" fill="#4c1d95" font-family="Arial, sans-serif">Practice searching databases efficiently for a target compound</text><circle cx="1080.0" cy="525.0" r="2.6" fill="#7c3aed"/><text x="1090.0" y="529.0" font-size="11.8" fill="#4c1d95" font-family="Arial, sans-serif">Use database spectra as reference data for an Internal Assessment</text><path d="M 1030.0 620.0 C 1065.0 620.0, 1065.0 606.0, 1100.0 606.0" fill="none" stroke="#7c3aed" stroke-width="3" stroke-linecap="round" opacity="0.55"/><rect x="1100.0" y="582.0" width="380.0" height="48.0" rx="10" ry="10" fill="#7c3aed"/><text x="1290" y="602" text-anchor="middle" font-size="14.5" font-weight="700" fill="#ffffff" font-family="Arial, sans-serif">DATA BOOKLET TABLE DRILLS</text><text x="1290" y="621" text-anchor="middle" font-size="11.5" font-weight="500" fill="#ffffff" opacity="0.85" font-family="Arial, sans-serif">Exam technique</text><rect x="1060.0" y="644.0" width="460.0" height="116.0" rx="10" ry="10" fill="#f5f3ff" stroke="#c4b5fd" stroke-width="1.5"/><circle cx="1080.0" cy="667.0" r="2.6" fill="#7c3aed"/><text x="1090.0" y="671.0" font-size="11.8" fill="#4c1d95" font-family="Arial, sans-serif">Timed practice looking up IR wavenumbers for functional groups</text><circle cx="1080.0" cy="689.0" r="2.6" fill="#7c3aed"/><text x="1090.0" y="693.0" font-size="11.8" fill="#4c1d95" font-family="Arial, sans-serif">Timed practice looking up 1H NMR chemical shift ranges</text><circle cx="1080.0" cy="711.0" r="2.6" fill="#7c3aed"/><text x="1090.0" y="715.0" font-size="11.8" fill="#4c1d95" font-family="Arial, sans-serif">Flashcard-style quizzes on common MS fragment losses</text><circle cx="1080.0" cy="733.0" r="2.6" fill="#7c3aed"/><text x="1090.0" y="737.0" font-size="11.8" fill="#4c1d95" font-family="Arial, sans-serif">Build speed and accuracy in table use under exam conditions</text><path d="M 1030.0 620.0 C 1065.0 620.0, 1065.0 814.0, 1100.0 814.0" fill="none" stroke="#0d9488" stroke-width="3" stroke-linecap="round" opacity="0.55"/><rect x="1100.0" y="790.0" width="380.0" height="48.0" rx="10" ry="10" fill="#0d9488"/><text x="1290" y="810" text-anchor="middle" font-size="14.5" font-weight="700" fill="#ffffff" font-family="Arial, sans-serif">SIMULATIONS &amp; VIRTUAL LABS</text><text x="1290" y="829" text-anchor="middle" font-size="11.5" font-weight="500" fill="#ffffff" opacity="0.85" font-family="Arial, sans-serif">Simulations</text><rect x="1060.0" y="852.0" width="460.0" height="160.0" rx="10" ry="10" fill="#f0fdfa" stroke="#5eead4" stroke-width="1.5"/><circle cx="1080.0" cy="875.0" r="2.6" fill="#0d9488"/><text x="1090.0" y="879.0" font-size="11.8" fill="#134e4a" font-family="Arial, sans-serif">nmrdb.org - predict and interactively explore 1H NMR spectra</text><circle cx="1080.0" cy="897.0" r="2.6" fill="#0d9488"/><text x="1090.0" y="901.0" font-size="11.8" fill="#134e4a" font-family="Arial, sans-serif">SDBS (Spectral Database) - real IR/MS/NMR spectra for practice</text><circle cx="1080.0" cy="919.0" r="2.6" fill="#0d9488"/><text x="1090.0" y="923.0" font-size="11.8" fill="#134e4a" font-family="Arial, sans-serif">NIST WebBook - reference spectra and physical data for compounds</text><circle cx="1080.0" cy="941.0" r="2.6" fill="#0d9488"/><text x="1090.0" y="945.0" font-size="11.8" fill="#134e4a" font-family="Arial, sans-serif">ChemDraw / ChemDoodle - predict IR and NMR shifts from a structure</text><circle cx="1080.0" cy="963.0" r="2.6" fill="#0d9488"/><text x="1090.0" y="967.0" font-size="11.8" fill="#134e4a" font-family="Arial, sans-serif">MolView.org - build a molecule and view its 3D structure</text><circle cx="1080.0" cy="985.0" r="2.6" fill="#0d9488"/><text x="1090.0" y="989.0" font-size="11.8" fill="#134e4a" font-family="Arial, sans-serif">Virtual spectrometer simulators for MS, IR and NMR practice problems</text><rect x="30.0" y="1026.0" width="16.0" height="16.0" rx="4" ry="4" fill="#7c3aed"/><text x="54" y="1039" font-size="13" fill="#1e293b" font-family="Arial, sans-serif">HL-only practicals (AHL)</text><rect x="320.0" y="1026.0" width="16.0" height="16.0" rx="4" ry="4" fill="#0d9488"/><text x="344" y="1039" font-size="13" fill="#1e293b" font-family="Arial, sans-serif">Simulations</text><text x="1730" y="1039" text-anchor="end" font-size="11" fill="#94a3b8" font-family="Arial, sans-serif">Data-based &amp; simulation resources for IB Chemistry spectroscopy</text></svg>