<?xml version="1.0" encoding="UTF-8" standalone="no"?><svg viewBox="0 0 1700 1500" xmlns="http://www.w3.org/2000/svg" role="img"><title>IB Chemistry HL Chemical Bonding Practical Labs Mind Map</title><rect x="0" y="0" width="1700" height="1500" fill="#ffffff"/><text x="850.0" y="42" text-anchor="middle" font-size="26" font-weight="800" fill="#0f172a" font-family="Arial, sans-serif">IB Chemistry HL — Chemical Bonding Labs</text><text x="850.0" y="66" text-anchor="middle" font-size="14" fill="#475569" font-family="Arial, sans-serif">Practical, modelling &amp; simulation work for Structure 2.1-2.4 "Models of bonding and structure"</text><rect x="700.0" y="612.0" width="300.0" height="96.0" rx="16" ry="16" fill="#0f172a"/><text x="850" y="652" text-anchor="middle" font-size="18" font-weight="800" fill="#ffffff" font-family="Arial, sans-serif">BONDING LABS</text><text x="850" y="676" text-anchor="middle" font-size="12" fill="#cbd5e1" font-family="Arial, sans-serif">Practical work — HL Chemistry</text><path d="M 610.0 255.0 C 655.0 255.0, 655.0 660.0, 700.0 660.0" fill="none" stroke="#2563eb" stroke-width="3" stroke-linecap="round" opacity="0.55"/><rect x="270.0" y="231.0" width="340.0" height="48.0" rx="10" ry="10" fill="#2563eb"/><text x="440" y="251" text-anchor="middle" font-size="15" font-weight="700" fill="#ffffff" font-family="Arial, sans-serif">IONIC STRUCTURE &amp; CONDUCTIVITY</text><text x="440" y="270" text-anchor="middle" font-size="11.5" font-weight="500" fill="#ffffff" opacity="0.85" font-family="Arial, sans-serif">Practical</text><rect x="230.0" y="293.0" width="420.0" height="126.0" rx="10" ry="10" fill="#eff6ff" stroke="#93c5fd" stroke-width="1.5"/><circle cx="250.0" cy="318.0" r="2.8" fill="#2563eb"/><text x="260.0" y="322.0" font-size="12.3" fill="#1e3a8a" font-family="Arial, sans-serif">Test conductivity: solid vs molten vs aqueous ionic compound</text><circle cx="250.0" cy="342.0" r="2.8" fill="#2563eb"/><text x="260.0" y="346.0" font-size="12.3" fill="#1e3a8a" font-family="Arial, sans-serif">Compare melting points of ionic vs covalent/molecular compounds</text><circle cx="250.0" cy="366.0" r="2.8" fill="#2563eb"/><text x="260.0" y="370.0" font-size="12.3" fill="#1e3a8a" font-family="Arial, sans-serif">Solubility tests: ionic compounds in water vs organic solvents</text><circle cx="250.0" cy="390.0" r="2.8" fill="#2563eb"/><text x="260.0" y="394.0" font-size="12.3" fill="#1e3a8a" font-family="Arial, sans-serif">Link lattice enthalpy trends to ion size/charge (secondary data)</text><path d="M 610.0 525.0 C 655.0 525.0, 655.0 660.0, 700.0 660.0" fill="none" stroke="#2563eb" stroke-width="3" stroke-linecap="round" opacity="0.55"/><rect x="270.0" y="501.0" width="340.0" height="48.0" rx="10" ry="10" fill="#2563eb"/><text x="440" y="521" text-anchor="middle" font-size="15" font-weight="700" fill="#ffffff" font-family="Arial, sans-serif">MOLECULAR MODEL BUILDING &amp; VSEPR</text><text x="440" y="540" text-anchor="middle" font-size="11.5" font-weight="500" fill="#ffffff" opacity="0.85" font-family="Arial, sans-serif">Modelling activity</text><rect x="230.0" y="563.0" width="420.0" height="126.0" rx="10" ry="10" fill="#eff6ff" stroke="#93c5fd" stroke-width="1.5"/><circle cx="250.0" cy="588.0" r="2.8" fill="#2563eb"/><text x="260.0" y="592.0" font-size="12.3" fill="#1e3a8a" font-family="Arial, sans-serif">Build 3D ball-and-stick/VSEPR models for 2-4 domain species</text><circle cx="250.0" cy="612.0" r="2.8" fill="#2563eb"/><text x="260.0" y="616.0" font-size="12.3" fill="#1e3a8a" font-family="Arial, sans-serif">Compare electron-domain geometry vs molecular geometry</text><circle cx="250.0" cy="636.0" r="2.8" fill="#2563eb"/><text x="260.0" y="640.0" font-size="12.3" fill="#1e3a8a" font-family="Arial, sans-serif">Model lone-pair effects on bond angles (e.g. NH3, H2O)</text><circle cx="250.0" cy="660.0" r="2.8" fill="#2563eb"/><text x="260.0" y="664.0" font-size="12.3" fill="#1e3a8a" font-family="Arial, sans-serif">Sketch &amp; name shapes: linear, trigonal planar, tetrahedral etc.</text><path d="M 610.0 795.0 C 655.0 795.0, 655.0 660.0, 700.0 660.0" fill="none" stroke="#2563eb" stroke-width="3" stroke-linecap="round" opacity="0.55"/><rect x="270.0" y="771.0" width="340.0" height="48.0" rx="10" ry="10" fill="#2563eb"/><text x="440" y="791" text-anchor="middle" font-size="15" font-weight="700" fill="#ffffff" font-family="Arial, sans-serif">INTERMOLECULAR FORCES INVESTIGATIONS</text><text x="440" y="810" text-anchor="middle" font-size="11.5" font-weight="500" fill="#ffffff" opacity="0.85" font-family="Arial, sans-serif">Qualitative</text><rect x="230.0" y="833.0" width="420.0" height="126.0" rx="10" ry="10" fill="#eff6ff" stroke="#93c5fd" stroke-width="1.5"/><circle cx="250.0" cy="858.0" r="2.8" fill="#2563eb"/><text x="260.0" y="862.0" font-size="12.3" fill="#1e3a8a" font-family="Arial, sans-serif">Miscibility tests: polar vs non-polar solvents ("like dissolves like")</text><circle cx="250.0" cy="882.0" r="2.8" fill="#2563eb"/><text x="260.0" y="886.0" font-size="12.3" fill="#1e3a8a" font-family="Arial, sans-serif">Compare boiling points across a homologous series</text><circle cx="250.0" cy="906.0" r="2.8" fill="#2563eb"/><text x="260.0" y="910.0" font-size="12.3" fill="#1e3a8a" font-family="Arial, sans-serif">Evaporation rate comparison (volatility vs IMF strength)</text><circle cx="250.0" cy="930.0" r="2.8" fill="#2563eb"/><text x="260.0" y="934.0" font-size="12.3" fill="#1e3a8a" font-family="Arial, sans-serif">Link structural features to the IMF type present</text><path d="M 610.0 1065.0 C 655.0 1065.0, 655.0 660.0, 700.0 660.0" fill="none" stroke="#2563eb" stroke-width="3" stroke-linecap="round" opacity="0.55"/><rect x="270.0" y="1041.0" width="340.0" height="48.0" rx="10" ry="10" fill="#2563eb"/><text x="440" y="1061" text-anchor="middle" font-size="15" font-weight="700" fill="#ffffff" font-family="Arial, sans-serif">METALS &amp; CHROMATOGRAPHY</text><text x="440" y="1080" text-anchor="middle" font-size="11.5" font-weight="500" fill="#ffffff" opacity="0.85" font-family="Arial, sans-serif">Practical</text><rect x="230.0" y="1103.0" width="420.0" height="126.0" rx="10" ry="10" fill="#eff6ff" stroke="#93c5fd" stroke-width="1.5"/><circle cx="250.0" cy="1128.0" r="2.8" fill="#2563eb"/><text x="260.0" y="1132.0" font-size="12.3" fill="#1e3a8a" font-family="Arial, sans-serif">Test malleability, ductility &amp; conductivity of metals</text><circle cx="250.0" cy="1152.0" r="2.8" fill="#2563eb"/><text x="260.0" y="1156.0" font-size="12.3" fill="#1e3a8a" font-family="Arial, sans-serif">Compare pure metal vs alloy properties (e.g. bronze, brass)</text><circle cx="250.0" cy="1176.0" r="2.8" fill="#2563eb"/><text x="260.0" y="1180.0" font-size="12.3" fill="#1e3a8a" font-family="Arial, sans-serif">Paper/TLC chromatography of coloured mixtures</text><circle cx="250.0" cy="1200.0" r="2.8" fill="#2563eb"/><text x="260.0" y="1204.0" font-size="12.3" fill="#1e3a8a" font-family="Arial, sans-serif">Calculate Rf values and compare across solvents</text><path d="M 1000.0 660.0 C 1045.0 660.0, 1045.0 330.0, 1090.0 330.0" fill="none" stroke="#7c3aed" stroke-width="3" stroke-linecap="round" opacity="0.55"/><rect x="1090.0" y="306.0" width="340.0" height="48.0" rx="10" ry="10" fill="#7c3aed"/><text x="1260" y="326" text-anchor="middle" font-size="15" font-weight="700" fill="#ffffff" font-family="Arial, sans-serif">ADVANCED BONDING MODELS</text><text x="1260" y="345" text-anchor="middle" font-size="11.5" font-weight="500" fill="#ffffff" opacity="0.85" font-family="Arial, sans-serif">Modelling . HL</text><rect x="1050.0" y="368.0" width="420.0" height="126.0" rx="10" ry="10" fill="#f5f3ff" stroke="#c4b5fd" stroke-width="1.5"/><circle cx="1070.0" cy="393.0" r="2.8" fill="#7c3aed"/><text x="1080.0" y="397.0" font-size="12.3" fill="#4c1d95" font-family="Arial, sans-serif">Build 3D models of PCl5, SF6 (expanded octet, 5/6 domains)</text><circle cx="1070.0" cy="417.0" r="2.8" fill="#7c3aed"/><text x="1080.0" y="421.0" font-size="12.3" fill="#4c1d95" font-family="Arial, sans-serif">Model benzene's resonance / delocalized ring structure</text><circle cx="1070.0" cy="441.0" r="2.8" fill="#7c3aed"/><text x="1080.0" y="445.0" font-size="12.3" fill="#4c1d95" font-family="Arial, sans-serif">Use molecular model kits to show sigma vs pi bonds</text><circle cx="1070.0" cy="465.0" r="2.8" fill="#7c3aed"/><text x="1080.0" y="469.0" font-size="12.3" fill="#4c1d95" font-family="Arial, sans-serif">Identify hybridization (sp, sp2, sp3) from built models</text><path d="M 1000.0 660.0 C 1045.0 660.0, 1045.0 600.0, 1090.0 600.0" fill="none" stroke="#7c3aed" stroke-width="3" stroke-linecap="round" opacity="0.55"/><rect x="1090.0" y="576.0" width="340.0" height="48.0" rx="10" ry="10" fill="#7c3aed"/><text x="1260" y="596" text-anchor="middle" font-size="15" font-weight="700" fill="#ffffff" font-family="Arial, sans-serif">FORMAL CHARGE ANALYSIS</text><text x="1260" y="615" text-anchor="middle" font-size="11.5" font-weight="500" fill="#ffffff" opacity="0.85" font-family="Arial, sans-serif">Worksheet . HL</text><rect x="1050.0" y="638.0" width="420.0" height="126.0" rx="10" ry="10" fill="#f5f3ff" stroke="#c4b5fd" stroke-width="1.5"/><circle cx="1070.0" cy="663.0" r="2.8" fill="#7c3aed"/><text x="1080.0" y="667.0" font-size="12.3" fill="#4c1d95" font-family="Arial, sans-serif">Practice calculating formal charge on worked examples</text><circle cx="1070.0" cy="687.0" r="2.8" fill="#7c3aed"/><text x="1080.0" y="691.0" font-size="12.3" fill="#4c1d95" font-family="Arial, sans-serif">Compare alternative Lewis structures for the same formula</text><circle cx="1070.0" cy="711.0" r="2.8" fill="#7c3aed"/><text x="1080.0" y="715.0" font-size="12.3" fill="#4c1d95" font-family="Arial, sans-serif">Select the preferred structure using formal-charge rules</text><circle cx="1070.0" cy="735.0" r="2.8" fill="#7c3aed"/><text x="1080.0" y="739.0" font-size="12.3" fill="#4c1d95" font-family="Arial, sans-serif">Cross-check against expanded-octet/resonance possibilities</text><path d="M 1000.0 660.0 C 1045.0 660.0, 1045.0 870.0, 1090.0 870.0" fill="none" stroke="#7c3aed" stroke-width="3" stroke-linecap="round" opacity="0.55"/><rect x="1090.0" y="846.0" width="340.0" height="48.0" rx="10" ry="10" fill="#7c3aed"/><text x="1260" y="866" text-anchor="middle" font-size="15" font-weight="700" fill="#ffffff" font-family="Arial, sans-serif">BONDING TRIANGLE &amp; POLYMER SYNTHESIS</text><text x="1260" y="885" text-anchor="middle" font-size="11.5" font-weight="500" fill="#ffffff" opacity="0.85" font-family="Arial, sans-serif">HL</text><rect x="1050.0" y="908.0" width="420.0" height="126.0" rx="10" ry="10" fill="#f5f3ff" stroke="#c4b5fd" stroke-width="1.5"/><circle cx="1070.0" cy="933.0" r="2.8" fill="#7c3aed"/><text x="1080.0" y="937.0" font-size="12.3" fill="#4c1d95" font-family="Arial, sans-serif">Plot compounds on the bonding triangle using electronegativity data</text><circle cx="1070.0" cy="957.0" r="2.8" fill="#7c3aed"/><text x="1080.0" y="961.0" font-size="12.3" fill="#4c1d95" font-family="Arial, sans-serif">Classify bond character (ionic/covalent/metallic contribution)</text><circle cx="1070.0" cy="981.0" r="2.8" fill="#7c3aed"/><text x="1080.0" y="985.0" font-size="12.3" fill="#4c1d95" font-family="Arial, sans-serif">Nylon-6,6 "rope trick": classic condensation polymer demo</text><circle cx="1070.0" cy="1005.0" r="2.8" fill="#7c3aed"/><text x="1080.0" y="1009.0" font-size="12.3" fill="#4c1d95" font-family="Arial, sans-serif">Compare properties of addition vs condensation polymer samples</text><path d="M 1000.0 660.0 C 1045.0 660.0, 1045.0 1140.0, 1090.0 1140.0" fill="none" stroke="#0d9488" stroke-width="3" stroke-linecap="round" opacity="0.55"/><rect x="1090.0" y="1116.0" width="340.0" height="48.0" rx="10" ry="10" fill="#0d9488"/><text x="1260" y="1136" text-anchor="middle" font-size="15" font-weight="700" fill="#ffffff" font-family="Arial, sans-serif">SIMULATIONS &amp; VIRTUAL LABS</text><text x="1260" y="1155" text-anchor="middle" font-size="11.5" font-weight="500" fill="#ffffff" opacity="0.85" font-family="Arial, sans-serif"></text><rect x="1050.0" y="1178.0" width="420.0" height="174.0" rx="10" ry="10" fill="#f0fdfa" stroke="#5eead4" stroke-width="1.5"/><circle cx="1070.0" cy="1203.0" r="2.8" fill="#0d9488"/><text x="1080.0" y="1207.0" font-size="12.3" fill="#134e4a" font-family="Arial, sans-serif">PhET 'Molecule Shapes' - compare real vs model VSEPR geometry</text><circle cx="1070.0" cy="1227.0" r="2.8" fill="#0d9488"/><text x="1080.0" y="1231.0" font-size="12.3" fill="#134e4a" font-family="Arial, sans-serif">PhET 'Molecule Polarity' - explore bond &amp; molecular dipoles</text><circle cx="1070.0" cy="1251.0" r="2.8" fill="#0d9488"/><text x="1080.0" y="1255.0" font-size="12.3" fill="#134e4a" font-family="Arial, sans-serif">PhET 'Build a Molecule' - construct molecules, see formula/name</text><circle cx="1070.0" cy="1275.0" r="2.8" fill="#0d9488"/><text x="1080.0" y="1279.0" font-size="12.3" fill="#134e4a" font-family="Arial, sans-serif">PhET 'Sugar and Salt Solutions' - dissolve ionic vs covalent species</text><circle cx="1070.0" cy="1299.0" r="2.8" fill="#0d9488"/><text x="1080.0" y="1303.0" font-size="12.3" fill="#134e4a" font-family="Arial, sans-serif">MolView.org - free 3D molecule viewer/editor</text><circle cx="1070.0" cy="1323.0" r="2.8" fill="#0d9488"/><text x="1080.0" y="1327.0" font-size="12.3" fill="#134e4a" font-family="Arial, sans-serif">ChemTube3D (Liverpool) - A-level Simulations</text><rect x="30.0" y="1436.0" width="16.0" height="16.0" rx="4" ry="4" fill="#2563eb"/><text x="54" y="1449" font-size="13" fill="#1e293b" font-family="Arial, sans-serif">Core practicals &amp; modelling (SL &amp; HL)</text><rect x="360.0" y="1436.0" width="16.0" height="16.0" rx="4" ry="4" fill="#7c3aed"/><text x="384" y="1449" font-size="13" fill="#1e293b" font-family="Arial, sans-serif">Advanced modelling &amp; synthesis (HL)</text><rect x="660.0" y="1436.0" width="16.0" height="16.0" rx="4" ry="4" fill="#0d9488"/><text x="684" y="1449" font-size="13" fill="#1e293b" font-family="Arial, sans-serif">Simulations</text><text x="1670" y="1449" text-anchor="end" font-size="11" fill="#94a3b8" font-family="Arial, sans-serif">Standard school-lab, modelling &amp; simulation resources compiled for IB Chemistry</text></svg>