<?xml version="1.0" encoding="UTF-8" standalone="no"?><svg viewBox="0 0 1700 1260" xmlns="http://www.w3.org/2000/svg" role="img"><title>IB Chemistry HL Thermochemistry Mind Map</title><rect x="0" y="0" width="1700" height="1260" fill="#ffffff"/><text x="850.0" y="42" text-anchor="middle" font-size="26" font-weight="800" fill="#0f172a" font-family="Arial, sans-serif">IB Chemistry HL — Thermochemistry</text><text x="850.0" y="66" text-anchor="middle" font-size="14" fill="#475569" font-family="Arial, sans-serif">Reactivity 1 "What drives chemical reactions?" (first exams 2025)</text><rect x="700.0" y="562.0" width="300.0" height="96.0" rx="16" ry="16" fill="#0f172a"/><text x="850" y="602" text-anchor="middle" font-size="20" font-weight="800" fill="#ffffff" font-family="Arial, sans-serif">THERMOCHEMISTRY</text><text x="850" y="626" text-anchor="middle" font-size="12.5" fill="#cbd5e1" font-family="Arial, sans-serif">Reactivity 1 — What drives chemical reactions?</text><path d="M 560.0 235.0 C 630.0 235.0, 630.0 610.0, 700.0 610.0" fill="none" stroke="#2563eb" stroke-width="3" stroke-linecap="round" opacity="0.55"/><rect x="260.0" y="211.0" width="300.0" height="48.0" rx="10" ry="10" fill="#2563eb"/><text x="410" y="231" text-anchor="middle" font-size="15" font-weight="700" fill="#ffffff" font-family="Arial, sans-serif">MEASURING ENTHALPY CHANGES</text><text x="410" y="250" text-anchor="middle" font-size="11.5" font-weight="500" fill="#ffffff" opacity="0.85" font-family="Arial, sans-serif">Reactivity 1.1</text><rect x="220.0" y="273.0" width="380.0" height="150.0" rx="10" ry="10" fill="#eff6ff" stroke="#93c5fd" stroke-width="1.5"/><circle cx="240.0" cy="298.0" r="2.8" fill="#2563eb"/><text x="250.0" y="302.0" font-size="12.3" fill="#1e3a8a" font-family="Arial, sans-serif">System &lt;-&gt; surroundings energy transfer; total E conserved</text><circle cx="240.0" cy="322.0" r="2.8" fill="#2563eb"/><text x="250.0" y="326.0" font-size="12.3" fill="#1e3a8a" font-family="Arial, sans-serif">Exothermic: T increases; Endothermic: T decreases</text><circle cx="240.0" cy="346.0" r="2.8" fill="#2563eb"/><text x="250.0" y="350.0" font-size="12.3" fill="#1e3a8a" font-family="Arial, sans-serif">Relative stability of reactants/products sets sign of ΔH</text><circle cx="240.0" cy="370.0" r="2.8" fill="#2563eb"/><text x="250.0" y="374.0" font-size="12.3" fill="#1e3a8a" font-family="Arial, sans-serif">ΔH° via Q=mcΔT and ΔH=-Q/n (data booklet)</text><circle cx="240.0" cy="394.0" r="2.8" fill="#2563eb"/><text x="250.0" y="398.0" font-size="12.3" fill="#1e3a8a" font-family="Arial, sans-serif">Units of ΔH°: kJ/mol; measured at constant pressure</text><path d="M 560.0 485.0 C 630.0 485.0, 630.0 610.0, 700.0 610.0" fill="none" stroke="#2563eb" stroke-width="3" stroke-linecap="round" opacity="0.55"/><rect x="260.0" y="461.0" width="300.0" height="48.0" rx="10" ry="10" fill="#2563eb"/><text x="410" y="481" text-anchor="middle" font-size="15" font-weight="700" fill="#ffffff" font-family="Arial, sans-serif">BOND ENTHALPIES &amp; HESS'S LAW</text><text x="410" y="500" text-anchor="middle" font-size="11.5" font-weight="500" fill="#ffffff" opacity="0.85" font-family="Arial, sans-serif">Reactivity 1.2.1-1.2.2</text><rect x="220.0" y="523.0" width="380.0" height="150.0" rx="10" ry="10" fill="#eff6ff" stroke="#93c5fd" stroke-width="1.5"/><circle cx="240.0" cy="548.0" r="2.8" fill="#2563eb"/><text x="250.0" y="552.0" font-size="12.3" fill="#1e3a8a" font-family="Arial, sans-serif">Bond breaking absorbs energy; bond forming releases energy</text><circle cx="240.0" cy="572.0" r="2.8" fill="#2563eb"/><text x="250.0" y="576.0" font-size="12.3" fill="#1e3a8a" font-family="Arial, sans-serif">ΔH from average bond enthalpies (data booklet)</text><circle cx="240.0" cy="596.0" r="2.8" fill="#2563eb"/><text x="250.0" y="600.0" font-size="12.3" fill="#1e3a8a" font-family="Arial, sans-serif">Bond enthalpies are averages -&gt; differ from experiment</text><circle cx="240.0" cy="620.0" r="2.8" fill="#2563eb"/><text x="250.0" y="624.0" font-size="12.3" fill="#1e3a8a" font-family="Arial, sans-serif">Hess's Law: ΔH independent of reaction pathway</text><circle cx="240.0" cy="644.0" r="2.8" fill="#2563eb"/><text x="250.0" y="648.0" font-size="12.3" fill="#1e3a8a" font-family="Arial, sans-serif">Apply Hess's Law cycles to multistep reactions</text><path d="M 560.0 735.0 C 630.0 735.0, 630.0 610.0, 700.0 610.0" fill="none" stroke="#2563eb" stroke-width="3" stroke-linecap="round" opacity="0.55"/><rect x="260.0" y="711.0" width="300.0" height="48.0" rx="10" ry="10" fill="#2563eb"/><text x="410" y="731" text-anchor="middle" font-size="15" font-weight="700" fill="#ffffff" font-family="Arial, sans-serif">COMBUSTION &amp; FUELS</text><text x="410" y="750" text-anchor="middle" font-size="11.5" font-weight="500" fill="#ffffff" opacity="0.85" font-family="Arial, sans-serif">Reactivity 1.3.1-1.3.2, 1.3.5</text><rect x="220.0" y="773.0" width="380.0" height="150.0" rx="10" ry="10" fill="#eff6ff" stroke="#93c5fd" stroke-width="1.5"/><circle cx="240.0" cy="798.0" r="2.8" fill="#2563eb"/><text x="250.0" y="802.0" font-size="12.3" fill="#1e3a8a" font-family="Arial, sans-serif">Combustion: hydrocarbons &amp; alcohols + O2 -&gt; CO2+H2O</text><circle cx="240.0" cy="822.0" r="2.8" fill="#2563eb"/><text x="250.0" y="826.0" font-size="12.3" fill="#1e3a8a" font-family="Arial, sans-serif">Incomplete combustion -&gt; CO and C (soot) form</text><circle cx="240.0" cy="846.0" r="2.8" fill="#2563eb"/><text x="250.0" y="850.0" font-size="12.3" fill="#1e3a8a" font-family="Arial, sans-serif">High activation energy is a useful fuel property</text><circle cx="240.0" cy="870.0" r="2.8" fill="#2563eb"/><text x="250.0" y="874.0" font-size="12.3" fill="#1e3a8a" font-family="Arial, sans-serif">Fuel cells (H2, methanol) -&gt; electrical energy directly</text><circle cx="240.0" cy="894.0" r="2.8" fill="#2563eb"/><text x="250.0" y="898.0" font-size="12.3" fill="#1e3a8a" font-family="Arial, sans-serif">Fuel cell half-equations at each electrode</text><path d="M 560.0 985.0 C 630.0 985.0, 630.0 610.0, 700.0 610.0" fill="none" stroke="#2563eb" stroke-width="3" stroke-linecap="round" opacity="0.55"/><rect x="260.0" y="961.0" width="300.0" height="48.0" rx="10" ry="10" fill="#2563eb"/><text x="410" y="981" text-anchor="middle" font-size="15" font-weight="700" fill="#ffffff" font-family="Arial, sans-serif">FOSSIL FUELS &amp; BIOFUELS</text><text x="410" y="1000" text-anchor="middle" font-size="11.5" font-weight="500" fill="#ffffff" opacity="0.85" font-family="Arial, sans-serif">Reactivity 1.3.3-1.3.4</text><rect x="220.0" y="1023.0" width="380.0" height="126.0" rx="10" ry="10" fill="#eff6ff" stroke="#93c5fd" stroke-width="1.5"/><circle cx="240.0" cy="1048.0" r="2.8" fill="#2563eb"/><text x="250.0" y="1052.0" font-size="12.3" fill="#1e3a8a" font-family="Arial, sans-serif">Coal, crude oil, natural gas: pros/cons compared</text><circle cx="240.0" cy="1072.0" r="2.8" fill="#2563eb"/><text x="250.0" y="1076.0" font-size="12.3" fill="#1e3a8a" font-family="Arial, sans-serif">CO2 output &amp; greenhouse effect linked to fuel choice</text><circle cx="240.0" cy="1096.0" r="2.8" fill="#2563eb"/><text x="250.0" y="1100.0" font-size="12.3" fill="#1e3a8a" font-family="Arial, sans-serif">Larger hydrocarbons -&gt; more incomplete combustion</text><circle cx="240.0" cy="1120.0" r="2.8" fill="#2563eb"/><text x="250.0" y="1124.0" font-size="12.3" fill="#1e3a8a" font-family="Arial, sans-serif">Biofuels: renewable, short-term carbon fixation</text><path d="M 1000.0 610.0 C 1070.0 610.0, 1070.0 235.0, 1140.0 235.0" fill="none" stroke="#7c3aed" stroke-width="3" stroke-linecap="round" opacity="0.55"/><rect x="1140.0" y="211.0" width="300.0" height="48.0" rx="10" ry="10" fill="#7c3aed"/><text x="1290" y="231" text-anchor="middle" font-size="15" font-weight="700" fill="#ffffff" font-family="Arial, sans-serif">ΔHf° &amp; ΔHc° CALCULATIONS</text><text x="1290" y="250" text-anchor="middle" font-size="11.5" font-weight="500" fill="#ffffff" opacity="0.85" font-family="Arial, sans-serif">Reactivity 1.2.3-1.2.4 • HL</text><rect x="1100.0" y="273.0" width="380.0" height="126.0" rx="10" ry="10" fill="#f5f3ff" stroke="#c4b5fd" stroke-width="1.5"/><circle cx="1120.0" cy="298.0" r="2.8" fill="#7c3aed"/><text x="1130.0" y="302.0" font-size="12.3" fill="#4c1d95" font-family="Arial, sans-serif">Standard enthalpies of combustion (ΔHc°) &amp; formation (ΔHf°)</text><circle cx="1120.0" cy="322.0" r="2.8" fill="#7c3aed"/><text x="1130.0" y="326.0" font-size="12.3" fill="#4c1d95" font-family="Arial, sans-serif">ΔH° = ΣΔHf°(products) - ΣΔHf°(reactants)</text><circle cx="1120.0" cy="346.0" r="2.8" fill="#7c3aed"/><text x="1130.0" y="350.0" font-size="12.3" fill="#4c1d95" font-family="Arial, sans-serif">ΔH° = ΣΔHc°(reactants) - ΣΔHc°(products)</text><circle cx="1120.0" cy="370.0" r="2.8" fill="#7c3aed"/><text x="1130.0" y="374.0" font-size="12.3" fill="#4c1d95" font-family="Arial, sans-serif">Both are Hess's Law applications; data booklet supplies values</text><path d="M 1000.0 610.0 C 1070.0 610.0, 1070.0 485.0, 1140.0 485.0" fill="none" stroke="#7c3aed" stroke-width="3" stroke-linecap="round" opacity="0.55"/><rect x="1140.0" y="461.0" width="300.0" height="48.0" rx="10" ry="10" fill="#7c3aed"/><text x="1290" y="481" text-anchor="middle" font-size="15" font-weight="700" fill="#ffffff" font-family="Arial, sans-serif">BORN-HABER CYCLES</text><text x="1290" y="500" text-anchor="middle" font-size="11.5" font-weight="500" fill="#ffffff" opacity="0.85" font-family="Arial, sans-serif">Reactivity 1.2.5 • HL</text><rect x="1100.0" y="523.0" width="380.0" height="150.0" rx="10" ry="10" fill="#f5f3ff" stroke="#c4b5fd" stroke-width="1.5"/><circle cx="1120.0" cy="548.0" r="2.8" fill="#7c3aed"/><text x="1130.0" y="552.0" font-size="12.3" fill="#4c1d95" font-family="Arial, sans-serif">Application of Hess's Law for ionic compound formation</text><circle cx="1120.0" cy="572.0" r="2.8" fill="#7c3aed"/><text x="1130.0" y="576.0" font-size="12.3" fill="#4c1d95" font-family="Arial, sans-serif">Includes: ionization energy, atomization, electron affinity</text><circle cx="1120.0" cy="596.0" r="2.8" fill="#7c3aed"/><text x="1130.0" y="600.0" font-size="12.3" fill="#4c1d95" font-family="Arial, sans-serif">Also includes lattice enthalpy &amp; enthalpy of formation</text><circle cx="1120.0" cy="620.0" r="2.8" fill="#7c3aed"/><text x="1130.0" y="624.0" font-size="12.3" fill="#4c1d95" font-family="Arial, sans-serif">Interpret cycles for univalent &amp; divalent ions</text><circle cx="1120.0" cy="644.0" r="2.8" fill="#7c3aed"/><text x="1130.0" y="648.0" font-size="12.3" fill="#4c1d95" font-family="Arial, sans-serif">Full cycle construction not assessed (interpretation only)</text><path d="M 1000.0 610.0 C 1070.0 610.0, 1070.0 735.0, 1140.0 735.0" fill="none" stroke="#7c3aed" stroke-width="3" stroke-linecap="round" opacity="0.55"/><rect x="1140.0" y="711.0" width="300.0" height="48.0" rx="10" ry="10" fill="#7c3aed"/><text x="1290" y="731" text-anchor="middle" font-size="15" font-weight="700" fill="#ffffff" font-family="Arial, sans-serif">ENTROPY</text><text x="1290" y="750" text-anchor="middle" font-size="11.5" font-weight="500" fill="#ffffff" opacity="0.85" font-family="Arial, sans-serif">Reactivity 1.4.1 • HL</text><rect x="1100.0" y="773.0" width="380.0" height="150.0" rx="10" ry="10" fill="#f5f3ff" stroke="#c4b5fd" stroke-width="1.5"/><circle cx="1120.0" cy="798.0" r="2.8" fill="#7c3aed"/><text x="1130.0" y="802.0" font-size="12.3" fill="#4c1d95" font-family="Arial, sans-serif">S = dispersal/distribution of matter &amp; energy in a system</text><circle cx="1120.0" cy="822.0" r="2.8" fill="#7c3aed"/><text x="1130.0" y="826.0" font-size="12.3" fill="#4c1d95" font-family="Arial, sans-serif">Gas &gt; liquid &gt; solid entropy under same conditions</text><circle cx="1120.0" cy="846.0" r="2.8" fill="#7c3aed"/><text x="1130.0" y="850.0" font-size="12.3" fill="#4c1d95" font-family="Arial, sans-serif">Predict entropy increase/decrease for a given change</text><circle cx="1120.0" cy="870.0" r="2.8" fill="#7c3aed"/><text x="1130.0" y="874.0" font-size="12.3" fill="#4c1d95" font-family="Arial, sans-serif">Calculate ΔS° from standard entropy values S° (data booklet)</text><circle cx="1120.0" cy="894.0" r="2.8" fill="#7c3aed"/><text x="1130.0" y="898.0" font-size="12.3" fill="#4c1d95" font-family="Arial, sans-serif">Perfect crystal at 0 K has zero entropy</text><path d="M 1000.0 610.0 C 1070.0 610.0, 1070.0 985.0, 1140.0 985.0" fill="none" stroke="#7c3aed" stroke-width="3" stroke-linecap="round" opacity="0.55"/><rect x="1140.0" y="961.0" width="300.0" height="48.0" rx="10" ry="10" fill="#7c3aed"/><text x="1290" y="981" text-anchor="middle" font-size="15" font-weight="700" fill="#ffffff" font-family="Arial, sans-serif">GIBBS ENERGY &amp; SPONTANEITY</text><text x="1290" y="1000" text-anchor="middle" font-size="11.5" font-weight="500" fill="#ffffff" opacity="0.85" font-family="Arial, sans-serif">Reactivity 1.4.2-1.4.4 • HL</text><rect x="1100.0" y="1023.0" width="380.0" height="126.0" rx="10" ry="10" fill="#f5f3ff" stroke="#c4b5fd" stroke-width="1.5"/><circle cx="1120.0" cy="1048.0" r="2.8" fill="#7c3aed"/><text x="1130.0" y="1052.0" font-size="12.3" fill="#4c1d95" font-family="Arial, sans-serif">ΔG° = ΔH° - TΔS° (data booklet)</text><circle cx="1120.0" cy="1072.0" r="2.8" fill="#7c3aed"/><text x="1130.0" y="1076.0" font-size="12.3" fill="#4c1d95" font-family="Arial, sans-serif">Spontaneous at constant P when ΔG &lt; 0</text><circle cx="1120.0" cy="1096.0" r="2.8" fill="#7c3aed"/><text x="1130.0" y="1100.0" font-size="12.3" fill="#4c1d95" font-family="Arial, sans-serif">Find temperature at which reaction becomes spontaneous</text><circle cx="1120.0" cy="1120.0" r="2.8" fill="#7c3aed"/><text x="1130.0" y="1124.0" font-size="12.3" fill="#4c1d95" font-family="Arial, sans-serif">ΔG=ΔG°+RT ln Q; at equilibrium ΔG°=-RT ln K (links to eq.)</text><rect x="30.0" y="1190.0" width="16.0" height="16.0" rx="4" ry="4" fill="#2563eb"/><text x="54" y="1203" font-size="13" fill="#1e293b" font-family="Arial, sans-serif">Core content (SL &amp; HL)</text><rect x="250.0" y="1190.0" width="16.0" height="16.0" rx="4" ry="4" fill="#7c3aed"/><text x="274" y="1203" font-size="13" fill="#1e293b" font-family="Arial, sans-serif">HL only</text><text x="1670" y="1203" text-anchor="end" font-size="11" fill="#94a3b8" font-family="Arial, sans-serif">Source: IB Chemistry syllabus (ibchem.com/IB25 — Reactivity 1.1-1.4)</text></svg>