<?xml version="1.0" encoding="UTF-8" standalone="no"?><svg viewBox="0 0 1700 1260" xmlns="http://www.w3.org/2000/svg" role="img"><title>IB Chemistry HL Thermochemistry Practical Labs Mind Map</title><rect x="0" y="0" width="1700" height="1260" fill="#ffffff"/><text x="850.0" y="42" text-anchor="middle" font-size="26" font-weight="800" fill="#0f172a" font-family="Arial, sans-serif">IB Chemistry HL — Thermochemistry Practical Labs</text><text x="850.0" y="66" text-anchor="middle" font-size="14" fill="#475569" font-family="Arial, sans-serif">Laboratory experiments &amp; IA ideas for Reactivity 1 "What drives chemical reactions?"</text><rect x="700.0" y="582.0" width="300.0" height="96.0" rx="16" ry="16" fill="#0f172a"/><text x="850" y="622" text-anchor="middle" font-size="19" font-weight="800" fill="#ffffff" font-family="Arial, sans-serif">THERMOCHEMISTRY LABS</text><text x="850" y="646" text-anchor="middle" font-size="12.5" fill="#cbd5e1" font-family="Arial, sans-serif">Practical experiments — HL Chemistry</text><path d="M 580.0 245.0 C 640.0 245.0, 640.0 630.0, 700.0 630.0" fill="none" stroke="#2563eb" stroke-width="3" stroke-linecap="round" opacity="0.55"/><rect x="260.0" y="221.0" width="320.0" height="48.0" rx="10" ry="10" fill="#2563eb"/><text x="420" y="241" text-anchor="middle" font-size="15" font-weight="700" fill="#ffffff" font-family="Arial, sans-serif">CALORIMETRY BASICS</text><text x="420" y="260" text-anchor="middle" font-size="11.5" font-weight="500" fill="#ffffff" opacity="0.85" font-family="Arial, sans-serif">Neutralization/displacement/dissolution</text><rect x="220.0" y="283.0" width="400.0" height="150.0" rx="10" ry="10" fill="#eff6ff" stroke="#93c5fd" stroke-width="1.5"/><circle cx="240.0" cy="308.0" r="2.8" fill="#2563eb"/><text x="250.0" y="312.0" font-size="12.3" fill="#1e3a8a" font-family="Arial, sans-serif">Neutralization: acid + base in polystyrene cup, measure ΔT</text><circle cx="240.0" cy="332.0" r="2.8" fill="#2563eb"/><text x="250.0" y="336.0" font-size="12.3" fill="#1e3a8a" font-family="Arial, sans-serif">Displacement: Zn(s) + CuSO4(aq) - exothermic reaction</text><circle cx="240.0" cy="356.0" r="2.8" fill="#2563eb"/><text x="250.0" y="360.0" font-size="12.3" fill="#1e3a8a" font-family="Arial, sans-serif">Dissolution: NH4Cl, NH4NO3, CaCl2(s) in water</text><circle cx="240.0" cy="380.0" r="2.8" fill="#2563eb"/><text x="250.0" y="384.0" font-size="12.3" fill="#1e3a8a" font-family="Arial, sans-serif">Apply Q=mcΔT and ΔH=-Q/n to find molar ΔH</text><circle cx="240.0" cy="404.0" r="2.8" fill="#2563eb"/><text x="250.0" y="408.0" font-size="12.3" fill="#1e3a8a" font-family="Arial, sans-serif">Compare to data-booklet/literature values</text><path d="M 580.0 500.0 C 640.0 500.0, 640.0 630.0, 700.0 630.0" fill="none" stroke="#2563eb" stroke-width="3" stroke-linecap="round" opacity="0.55"/><rect x="260.0" y="476.0" width="320.0" height="48.0" rx="10" ry="10" fill="#2563eb"/><text x="420" y="496" text-anchor="middle" font-size="15" font-weight="700" fill="#ffffff" font-family="Arial, sans-serif">COMBUSTION CALORIMETRY</text><text x="420" y="515" text-anchor="middle" font-size="11.5" font-weight="500" fill="#ffffff" opacity="0.85" font-family="Arial, sans-serif">Alcohols &amp; fuels</text><rect x="220.0" y="538.0" width="400.0" height="150.0" rx="10" ry="10" fill="#eff6ff" stroke="#93c5fd" stroke-width="1.5"/><circle cx="240.0" cy="563.0" r="2.8" fill="#2563eb"/><text x="250.0" y="567.0" font-size="12.3" fill="#1e3a8a" font-family="Arial, sans-serif">Burn alcohols (methanol-&gt;pentanol) to heat water in a can</text><circle cx="240.0" cy="587.0" r="2.8" fill="#2563eb"/><text x="250.0" y="591.0" font-size="12.3" fill="#1e3a8a" font-family="Arial, sans-serif">Compare experimental ΔHc to data-booklet values</text><circle cx="240.0" cy="611.0" r="2.8" fill="#2563eb"/><text x="250.0" y="615.0" font-size="12.3" fill="#1e3a8a" font-family="Arial, sans-serif">Identify heat loss &amp; incomplete combustion as errors</text><circle cx="240.0" cy="635.0" r="2.8" fill="#2563eb"/><text x="250.0" y="639.0" font-size="12.3" fill="#1e3a8a" font-family="Arial, sans-serif">Investigate ΔHc trend across a homologous series</text><circle cx="240.0" cy="659.0" r="2.8" fill="#2563eb"/><text x="250.0" y="663.0" font-size="12.3" fill="#1e3a8a" font-family="Arial, sans-serif">Compare fuels (ethanol vs candle wax) per gram burned</text><path d="M 580.0 755.0 C 640.0 755.0, 640.0 630.0, 700.0 630.0" fill="none" stroke="#2563eb" stroke-width="3" stroke-linecap="round" opacity="0.55"/><rect x="260.0" y="731.0" width="320.0" height="48.0" rx="10" ry="10" fill="#2563eb"/><text x="420" y="751" text-anchor="middle" font-size="15" font-weight="700" fill="#ffffff" font-family="Arial, sans-serif">HESS'S LAW VERIFICATION</text><text x="420" y="770" text-anchor="middle" font-size="11.5" font-weight="500" fill="#ffffff" opacity="0.85" font-family="Arial, sans-serif">3-experiment NaOH/HCl cycle</text><rect x="220.0" y="793.0" width="400.0" height="126.0" rx="10" ry="10" fill="#eff6ff" stroke="#93c5fd" stroke-width="1.5"/><circle cx="240.0" cy="818.0" r="2.8" fill="#2563eb"/><text x="250.0" y="822.0" font-size="12.3" fill="#1e3a8a" font-family="Arial, sans-serif">Measure ΔH1: NaOH(s) dissolving in water</text><circle cx="240.0" cy="842.0" r="2.8" fill="#2563eb"/><text x="250.0" y="846.0" font-size="12.3" fill="#1e3a8a" font-family="Arial, sans-serif">Measure ΔH2: NaOH(s) + HCl(aq) directly</text><circle cx="240.0" cy="866.0" r="2.8" fill="#2563eb"/><text x="250.0" y="870.0" font-size="12.3" fill="#1e3a8a" font-family="Arial, sans-serif">Measure ΔH3: NaOH(aq) + HCl(aq) neutralization</text><circle cx="240.0" cy="890.0" r="2.8" fill="#2563eb"/><text x="250.0" y="894.0" font-size="12.3" fill="#1e3a8a" font-family="Arial, sans-serif">Verify ΔH2 = ΔH1 + ΔH3 (Hess's Law cycle)</text><path d="M 580.0 1010.0 C 640.0 1010.0, 640.0 630.0, 700.0 630.0" fill="none" stroke="#2563eb" stroke-width="3" stroke-linecap="round" opacity="0.55"/><rect x="260.0" y="986.0" width="320.0" height="48.0" rx="10" ry="10" fill="#2563eb"/><text x="420" y="1006" text-anchor="middle" font-size="15" font-weight="700" fill="#ffffff" font-family="Arial, sans-serif">SPECIFIC HEAT &amp; CALIBRATION</text><text x="420" y="1025" text-anchor="middle" font-size="11.5" font-weight="500" fill="#ffffff" opacity="0.85" font-family="Arial, sans-serif">Calorimeter technique</text><rect x="220.0" y="1048.0" width="400.0" height="126.0" rx="10" ry="10" fill="#eff6ff" stroke="#93c5fd" stroke-width="1.5"/><circle cx="240.0" cy="1073.0" r="2.8" fill="#2563eb"/><text x="250.0" y="1077.0" font-size="12.3" fill="#1e3a8a" font-family="Arial, sans-serif">Electrical heater method: find c of water or a metal block</text><circle cx="240.0" cy="1097.0" r="2.8" fill="#2563eb"/><text x="250.0" y="1101.0" font-size="12.3" fill="#1e3a8a" font-family="Arial, sans-serif">Determine calorimeter's own heat capacity ("water equivalent")</text><circle cx="240.0" cy="1121.0" r="2.8" fill="#2563eb"/><text x="250.0" y="1125.0" font-size="12.3" fill="#1e3a8a" font-family="Arial, sans-serif">Correct later ΔH calculations for calorimeter heat absorption</text><circle cx="240.0" cy="1145.0" r="2.8" fill="#2563eb"/><text x="250.0" y="1149.0" font-size="12.3" fill="#1e3a8a" font-family="Arial, sans-serif">Compare insulated vs uninsulated calorimeter designs</text><path d="M 1000.0 630.0 C 1060.0 630.0, 1060.0 245.0, 1120.0 245.0" fill="none" stroke="#7c3aed" stroke-width="3" stroke-linecap="round" opacity="0.55"/><rect x="1120.0" y="221.0" width="320.0" height="48.0" rx="10" ry="10" fill="#7c3aed"/><text x="1280" y="241" text-anchor="middle" font-size="15" font-weight="700" fill="#ffffff" font-family="Arial, sans-serif">ENTROPY &amp; SPONTANEITY DEMOS</text><text x="1280" y="260" text-anchor="middle" font-size="11.5" font-weight="500" fill="#ffffff" opacity="0.85" font-family="Arial, sans-serif">Qualitative . HL</text><rect x="1080.0" y="283.0" width="400.0" height="126.0" rx="10" ry="10" fill="#f5f3ff" stroke="#c4b5fd" stroke-width="1.5"/><circle cx="1100.0" cy="308.0" r="2.8" fill="#7c3aed"/><text x="1110.0" y="312.0" font-size="12.3" fill="#4c1d95" font-family="Arial, sans-serif">Ba(OH)2.8H2O + NH4SCN(s) - endothermic, freezes water below flask</text><circle cx="1100.0" cy="332.0" r="2.8" fill="#7c3aed"/><text x="1110.0" y="336.0" font-size="12.3" fill="#4c1d95" font-family="Arial, sans-serif">Dissolving NH4NO3(s) - spontaneous despite ΔH &gt; 0</text><circle cx="1100.0" cy="356.0" r="2.8" fill="#7c3aed"/><text x="1110.0" y="360.0" font-size="12.3" fill="#4c1d95" font-family="Arial, sans-serif">Citric acid + NaHCO3 - endothermic yet spontaneous</text><circle cx="1100.0" cy="380.0" r="2.8" fill="#7c3aed"/><text x="1110.0" y="384.0" font-size="12.3" fill="#4c1d95" font-family="Arial, sans-serif">Shows entropy increase permits spontaneous endothermic change</text><path d="M 1000.0 630.0 C 1060.0 630.0, 1060.0 500.0, 1120.0 500.0" fill="none" stroke="#7c3aed" stroke-width="3" stroke-linecap="round" opacity="0.55"/><rect x="1120.0" y="476.0" width="320.0" height="48.0" rx="10" ry="10" fill="#7c3aed"/><text x="1280" y="496" text-anchor="middle" font-size="15" font-weight="700" fill="#ffffff" font-family="Arial, sans-serif">TEMPERATURE &amp; SPONTANEITY</text><text x="1280" y="515" text-anchor="middle" font-size="11.5" font-weight="500" fill="#ffffff" opacity="0.85" font-family="Arial, sans-serif">Investigation . HL</text><rect x="1080.0" y="538.0" width="400.0" height="126.0" rx="10" ry="10" fill="#f5f3ff" stroke="#c4b5fd" stroke-width="1.5"/><circle cx="1100.0" cy="563.0" r="2.8" fill="#7c3aed"/><text x="1110.0" y="567.0" font-size="12.3" fill="#4c1d95" font-family="Arial, sans-serif">CaCO3(s) decomposition - only spontaneous above a threshold T</text><circle cx="1100.0" cy="587.0" r="2.8" fill="#7c3aed"/><text x="1110.0" y="591.0" font-size="12.3" fill="#4c1d95" font-family="Arial, sans-serif">Investigate/predict T at which ΔG changes sign (ΔG=ΔH-TΔS)</text><circle cx="1100.0" cy="611.0" r="2.8" fill="#7c3aed"/><text x="1110.0" y="615.0" font-size="12.3" fill="#4c1d95" font-family="Arial, sans-serif">Compare reactions favoured by enthalpy vs entropy at diff. T</text><circle cx="1100.0" cy="635.0" r="2.8" fill="#7c3aed"/><text x="1110.0" y="639.0" font-size="12.3" fill="#4c1d95" font-family="Arial, sans-serif">Links to Le Chatelier temperature shifts (Reactivity 2.3)</text><path d="M 1000.0 630.0 C 1060.0 630.0, 1060.0 755.0, 1120.0 755.0" fill="none" stroke="#7c3aed" stroke-width="3" stroke-linecap="round" opacity="0.55"/><rect x="1120.0" y="731.0" width="320.0" height="48.0" rx="10" ry="10" fill="#7c3aed"/><text x="1280" y="751" text-anchor="middle" font-size="15" font-weight="700" fill="#ffffff" font-family="Arial, sans-serif">ACCURATE CALORIMETRY TECHNIQUE</text><text x="1280" y="770" text-anchor="middle" font-size="11.5" font-weight="500" fill="#ffffff" opacity="0.85" font-family="Arial, sans-serif">HL</text><rect x="1080.0" y="793.0" width="400.0" height="126.0" rx="10" ry="10" fill="#f5f3ff" stroke="#c4b5fd" stroke-width="1.5"/><circle cx="1100.0" cy="818.0" r="2.8" fill="#7c3aed"/><text x="1110.0" y="822.0" font-size="12.3" fill="#4c1d95" font-family="Arial, sans-serif">Use temperature probes/dataloggers for finer time resolution</text><circle cx="1100.0" cy="842.0" r="2.8" fill="#7c3aed"/><text x="1110.0" y="846.0" font-size="12.3" fill="#4c1d95" font-family="Arial, sans-serif">Extrapolate heating/cooling graph back to time of mixing</text><circle cx="1100.0" cy="866.0" r="2.8" fill="#7c3aed"/><text x="1110.0" y="870.0" font-size="12.3" fill="#4c1d95" font-family="Arial, sans-serif">Corrects for heat loss during slow temperature rise</text><circle cx="1100.0" cy="890.0" r="2.8" fill="#7c3aed"/><text x="1110.0" y="894.0" font-size="12.3" fill="#4c1d95" font-family="Arial, sans-serif">Improves accuracy of ΔH vs simple max-DT method</text><path d="M 1000.0 630.0 C 1060.0 630.0, 1060.0 1010.0, 1120.0 1010.0" fill="none" stroke="#7c3aed" stroke-width="3" stroke-linecap="round" opacity="0.55"/><rect x="1120.0" y="986.0" width="320.0" height="48.0" rx="10" ry="10" fill="#7c3aed"/><text x="1280" y="1006" text-anchor="middle" font-size="15" font-weight="700" fill="#ffffff" font-family="Arial, sans-serif">HL IA EXTENSION IDEAS</text><text x="1280" y="1025" text-anchor="middle" font-size="11.5" font-weight="500" fill="#ffffff" opacity="0.85" font-family="Arial, sans-serif">Investigations</text><rect x="1080.0" y="1048.0" width="400.0" height="126.0" rx="10" ry="10" fill="#f5f3ff" stroke="#c4b5fd" stroke-width="1.5"/><circle cx="1100.0" cy="1073.0" r="2.8" fill="#7c3aed"/><text x="1110.0" y="1077.0" font-size="12.3" fill="#4c1d95" font-family="Arial, sans-serif">Verify bond-enthalpy-calculated ΔH vs data-booklet ΔHc</text><circle cx="1100.0" cy="1097.0" r="2.8" fill="#7c3aed"/><text x="1110.0" y="1101.0" font-size="12.3" fill="#4c1d95" font-family="Arial, sans-serif">Compare energy density (kJ/g) of different fuels</text><circle cx="1100.0" cy="1121.0" r="2.8" fill="#7c3aed"/><text x="1110.0" y="1125.0" font-size="12.3" fill="#4c1d95" font-family="Arial, sans-serif">Build simple H2/O2 fuel cell, measure voltage/current</text><circle cx="1100.0" cy="1145.0" r="2.8" fill="#7c3aed"/><text x="1110.0" y="1149.0" font-size="12.3" fill="#4c1d95" font-family="Arial, sans-serif">Investigate factors affecting ΔH (conc., chain length, catalyst)</text><rect x="30.0" y="1190.0" width="16.0" height="16.0" rx="4" ry="4" fill="#2563eb"/><text x="54" y="1203" font-size="13" fill="#1e293b" font-family="Arial, sans-serif">Core calorimetry practicals (SL &amp; HL)</text><rect x="400.0" y="1190.0" width="16.0" height="16.0" rx="4" ry="4" fill="#7c3aed"/><text x="424" y="1203" font-size="13" fill="#1e293b" font-family="Arial, sans-serif">Entropy/Gibbs demos &amp; IA ideas (HL)</text><text x="1670" y="1203" text-anchor="end" font-size="11" fill="#94a3b8" font-family="Arial, sans-serif">Standard school-lab practicals compiled from IB Chemistry teaching resources</text></svg>